{
  "source": "C:\\Users\\Peter\\Desktop\\stuff\\MIUN\\quantitative_research\\video_compression\\videos\\BVI-HD\\BVI-HD_CDVL_videos\\ORIG\\Rowing_1920x1080_30fps.mp4",
  "output": "C:\\Users\\Peter\\Desktop\\stuff\\MIUN\\quantitative_research\\video_compression\\compressed_videos\\BVI-HD\\hevc\\1.5\\Rowing_1920x1080_30fps_hevc.mp4",
  "codec": "hevc",
  "ok": "Input #0, mov,mp4,m4a,3gp,3g2,mj2, from 'C:\\Users\\Peter\\Desktop\\stuff\\MIUN\\quantitative_research\\video_compression\\videos\\BVI-HD\\BVI-HD_CDVL_videos\\ORIG\\Rowing_1920x1080_30fps.mp4':\n  Metadata:\n    major_brand     : isom\n    minor_version   : 512\n    compatible_brands: isomiso2avc1mp41\n    encoder         : Lavf54.28.101\n  Duration: 00:00:05.00, start: 0.000000, bitrate: 259220 kb/s\n  Stream #0:0[0x1](und): Video: h264 (High 4:4:4 Predictive) (avc1 / 0x31637661), yuv420p(progressive), 1920x1080, 259216 kb/s, 30 fps, 30 tbr, 30 tbn (default)\n    Metadata:\n      handler_name    : VideoHandler\n      vendor_id       : [0][0][0][0]\n[out#0/mp4 @ 000002127c8cab00] Codec AVOption b:a (set bitrate (in bits/s)) has not been used for any stream. The most likely reason is either wrong type (e.g. a video option with no video streams) or that it is a private option of some decoder which was not actually used for any stream.\nStream mapping:\n  Stream #0:0 -> #0:0 (h264 (native) -> hevc (libx265))\nPress [q] to stop, [?] for help\n[libx265 @ 000002127d3d0bc0] Unknown option: \"aq-mode.\nx265 [info]: HEVC encoder version 4.1+190-8f11c33ac\nx265 [info]: build info [Windows][GCC 15.1.0][64 bit] 10bit\nx265 [info]: using cpu capabilities: MMX2 SSE2Fast LZCNT SSSE3 SSE4.2 AVX FMA3 BMI2 AVX2\nx265 [info]: Main 10 profile, Level-4 (Main tier)\nx265 [info]: Thread pool created using 12 threads\nx265 [info]: Slices                              : 1\nx265 [info]: frame threads / pool features       : 3 / wpp(17 rows)\nx265 [info]: Coding QT: max CU size, min CU size : 64 / 8\nx265 [info]: Residual QT: max TU size, max depth : 32 / 1 inter / 1 intra\nx265 [info]: ME / range / subpel / merge         : star / 57 / 3 / 3\nx265 [info]: Keyframe min / max / scenecut / bias  : 25 / 250 / 40 / 5.00 \nx265 [info]: Lookahead / bframes / badapt        : 25 / 4 / 2\nx265 [info]: b-pyramid / weightp / weightb       : 1 / 1 / 0\nx265 [info]: References / ref-limit  cu / depth  : 4 / on / on\nx265 [info]: AQ: mode / str / qg-size / cu-tree  : 2 / 1.0 / 32 / 1\nx265 [info]: Rate Control / qCompress            : ABR-1500 kbps / 0.60\nx265 [info]: VBV/HRD buffer / max-rate / init    : 1500 / 1500 / 0.750\nx265 [info]: tools: rect limit-modes rd=4 psy-rd=2.00 rdoq=2 psy-rdoq=1.00\nx265 [info]: tools: rskip mode=1 signhide tmvp strong-intra-smoothing lslices=4\nx265 [info]: tools: deblock sao dhdr10-info\nOutput #0, mp4, to 'C:\\Users\\Peter\\Desktop\\stuff\\MIUN\\quantitative_research\\video_compression\\compressed_videos\\BVI-HD\\hevc\\1.5\\Rowing_1920x1080_30fps_hevc.mp4':\n  Metadata:\n    major_brand     : isom\n    minor_version   : 512\n    compatible_brands: isomiso2avc1mp41\n    encoder         : Lavf62.3.100\n  Stream #0:0(und): Video: hevc (hev1 / 0x31766568), yuv420p10le(tv, progressive), 1920x1080, q=2-31, 1500 kb/s, 30 fps, 15360 tbn (default)\n    Metadata:\n      encoder         : Lavc62.11.100 libx265\n      handler_name    : VideoHandler\n      vendor_id       : [0][0][0][0]\n    Side data:\n      cpb: bitrate max/min/avg: 1500000/0/1500000 buffer size: 1500000 vbv_delay: N/A\nframe=    0 fps=0.0 q=0.0 size=       0KiB time=N/A bitrate=N/A speed=N/A elapsed=0:00:00.51    \nframe=    0 fps=0.0 q=0.0 size=       0KiB time=N/A bitrate=N/A speed=N/A elapsed=0:00:01.12    \nframe=    0 fps=0.0 q=0.0 size=       0KiB time=N/A bitrate=N/A speed=N/A elapsed=0:00:01.63    \nframe=    0 fps=0.0 q=0.0 size=       0KiB time=N/A bitrate=N/A speed=N/A elapsed=0:00:02.15    \nframe=    0 fps=0.0 q=0.0 size=       0KiB time=N/A bitrate=N/A speed=N/A elapsed=0:00:02.68    \nframe=    0 fps=0.0 q=0.0 size=       0KiB time=N/A bitrate=N/A speed=N/A elapsed=0:00:03.19    \nframe=    0 fps=0.0 q=0.0 size=       0KiB time=N/A bitrate=N/A speed=N/A elapsed=0:00:03.73    \nframe=    0 fps=0.0 q=0.0 size=       0KiB time=N/A bitrate=N/A speed=N/A elapsed=0:00:04.28    \nframe=    0 fps=0.0 q=0.0 size=       0KiB time=N/A bitrate=N/A speed=N/A elapsed=0:00:04.79    \nframe=    0 fps=0.0 q=0.0 size=       0KiB time=N/A bitrate=N/A speed=N/A elapsed=0:00:05.33    \nframe=    0 fps=0.0 q=0.0 size=       0KiB time=N/A bitrate=N/A speed=N/A elapsed=0:00:05.85    \nframe=    0 fps=0.0 q=0.0 size=       0KiB time=N/A bitrate=N/A speed=N/A elapsed=0:00:06.35    \nframe=    0 fps=0.0 q=0.0 size=       0KiB time=N/A bitrate=N/A speed=N/A elapsed=0:00:06.87    \nframe=    0 fps=0.0 q=0.0 size=       0KiB time=N/A bitrate=N/A speed=N/A elapsed=0:00:07.43    \nframe=    0 fps=0.0 q=0.0 size=       0KiB time=N/A bitrate=N/A speed=N/A elapsed=0:00:07.95    \nframe=    0 fps=0.0 q=0.0 size=       0KiB time=N/A bitrate=N/A speed=N/A elapsed=0:00:08.49    \nframe=    1 fps=0.1 q=42.0 size=       0KiB time=-00:00:00.03 bitrate=N/A speed=N/A elapsed=0:00:09.01    \nframe=    1 fps=0.1 q=42.0 size=       0KiB time=-00:00:00.03 bitrate=N/A speed=N/A elapsed=0:00:09.53    \nframe=    1 fps=0.1 q=42.0 size=       0KiB time=-00:00:00.03 bitrate=N/A speed=N/A elapsed=0:00:10.05    \nframe=    1 fps=0.1 q=42.0 size=       0KiB time=-00:00:00.03 bitrate=N/A speed=N/A elapsed=0:00:10.57    \nframe=    1 fps=0.1 q=42.0 size=       0KiB time=-00:00:00.03 bitrate=N/A speed=N/A elapsed=0:00:11.10    \nframe=    2 fps=0.2 q=46.3 size=       0KiB time=00:00:00.00 bitrate=N/A speed=   0x elapsed=0:00:11.63    \nframe=    2 fps=0.2 q=46.3 size=       0KiB time=00:00:00.00 bitrate=N/A speed=   0x elapsed=0:00:12.15    \nframe=    3 fps=0.2 q=50.8 size=       0KiB time=00:00:00.03 bitrate=  10.6kbits/s speed=0.00263x elapsed=0:00:12.69    \nframe=    3 fps=0.2 q=50.8 size=       0KiB time=00:00:00.03 bitrate=  10.6kbits/s speed=0.00252x elapsed=0:00:13.24    \nframe=    3 fps=0.2 q=50.8 size=       0KiB time=00:00:00.03 bitrate=  10.6kbits/s speed=0.00242x elapsed=0:00:13.75    \nframe=    4 fps=0.3 q=51.0 size=       0KiB time=00:00:00.06 bitrate=   5.3kbits/s speed=0.00467x elapsed=0:00:14.28    \nframe=    4 fps=0.3 q=51.0 size=       0KiB time=00:00:00.06 bitrate=   5.3kbits/s speed=0.0045x elapsed=0:00:14.82    \nframe=    4 fps=0.3 q=51.0 size=       0KiB time=00:00:00.06 bitrate=   5.3kbits/s speed=0.00434x elapsed=0:00:15.35    \nframe=    4 fps=0.3 q=51.0 size=       0KiB time=00:00:00.06 bitrate=   5.3kbits/s speed=0.0042x elapsed=0:00:15.86    \nframe=    5 fps=0.3 q=51.0 size=       0KiB time=00:00:00.10 bitrate=   3.5kbits/s speed=0.0061x elapsed=0:00:16.38    \nframe=    5 fps=0.3 q=51.0 size=       0KiB time=00:00:00.10 bitrate=   3.5kbits/s speed=0.00591x elapsed=0:00:16.91    \nframe=    5 fps=0.3 q=51.0 size=       0KiB time=00:00:00.10 bitrate=   3.5kbits/s speed=0.00573x elapsed=0:00:17.44    \nframe=    5 fps=0.3 q=51.0 size=       0KiB time=00:00:00.10 bitrate=   3.5kbits/s speed=0.00556x elapsed=0:00:17.97    \nframe=    5 fps=0.3 q=51.0 size=       0KiB time=00:00:00.10 bitrate=   3.5kbits/s speed=0.00541x elapsed=0:00:18.49    \nframe=    6 fps=0.3 q=51.0 size=       0KiB time=00:00:00.13 bitrate=   2.6kbits/s speed=0.00701x elapsed=0:00:19.02    \nframe=    6 fps=0.3 q=51.0 size=       0KiB time=00:00:00.13 bitrate=   2.6kbits/s speed=0.00682x elapsed=0:00:19.54    \nframe=    6 fps=0.3 q=51.0 size=       0KiB time=00:00:00.13 bitrate=   2.6kbits/s speed=0.00664x elapsed=0:00:20.07    \nframe=    6 fps=0.3 q=51.0 size=       0KiB time=00:00:00.13 bitrate=   2.6kbits/s speed=0.00647x elapsed=0:00:20.61    \nframe=    7 fps=0.3 q=51.0 size=       0KiB time=00:00:00.16 bitrate=   2.1kbits/s speed=0.00789x elapsed=0:00:21.12    \nframe=    7 fps=0.3 q=51.0 size=       0KiB time=00:00:00.16 bitrate=   2.1kbits/s speed=0.00769x elapsed=0:00:21.66    \nframe=    7 fps=0.3 q=51.0 size=       0KiB time=00:00:00.16 bitrate=   2.1kbits/s speed=0.00751x elapsed=0:00:22.19    \nframe=    8 fps=0.4 q=47.5 size=       0KiB time=00:00:00.20 bitrate=   1.8kbits/s speed=0.0088x elapsed=0:00:22.72    \nframe=    8 fps=0.3 q=47.5 size=       0KiB time=00:00:00.20 bitrate=   1.8kbits/s speed=0.00861x elapsed=0:00:23.23    \nframe=    8 fps=0.3 q=47.5 size=       0KiB time=00:00:00.20 bitrate=   1.8kbits/s speed=0.00841x elapsed=0:00:23.76    \nframe=    8 fps=0.3 q=47.5 size=       0KiB time=00:00:00.20 bitrate=   1.8kbits/s speed=0.00823x elapsed=0:00:24.28    \nframe=    9 fps=0.4 q=50.6 size=       0KiB time=00:00:00.23 bitrate=   1.5kbits/s speed=0.00941x elapsed=0:00:24.79    \nframe=    9 fps=0.4 q=50.6 size=       0KiB time=00:00:00.23 bitrate=   1.5kbits/s speed=0.00922x elapsed=0:00:25.31    \nframe=    9 fps=0.3 q=50.6 size=       0KiB time=00:00:00.23 bitrate=   1.5kbits/s speed=0.00903x elapsed=0:00:25.84    \nframe=    9 fps=0.3 q=50.6 size=       0KiB time=00:00:00.23 bitrate=   1.5kbits/s speed=0.00885x elapsed=0:00:26.36    \nframe=    9 fps=0.3 q=50.6 size=       0KiB time=00:00:00.23 bitrate=   1.5kbits/s speed=0.00868x elapsed=0:00:26.89    \nframe=    9 fps=0.3 q=50.6 size=       0KiB time=00:00:00.23 bitrate=   1.5kbits/s speed=0.00851x elapsed=0:00:27.40    \nframe=   10 fps=0.4 q=51.0 size=       0KiB time=00:00:00.26 bitrate=   1.3kbits/s speed=0.00955x elapsed=0:00:27.92    \nframe=   10 fps=0.4 q=51.0 size=       0KiB time=00:00:00.26 bitrate=   1.3kbits/s speed=0.00937x elapsed=0:00:28.45    \nframe=   10 fps=0.3 q=51.0 size=       0KiB time=00:00:00.26 bitrate=   1.3kbits/s speed=0.0092x elapsed=0:00:28.97    \nframe=   10 fps=0.3 q=51.0 size=       0KiB time=00:00:00.26 bitrate=   1.3kbits/s speed=0.00904x elapsed=0:00:29.50    \nframe=   11 fps=0.4 q=50.7 size=       0KiB time=00:00:00.30 bitrate=   1.2kbits/s speed=0.01x elapsed=0:00:30.01    \nframe=   11 fps=0.4 q=50.7 size=       0KiB time=00:00:00.30 bitrate=   1.2kbits/s speed=0.00983x elapsed=0:00:30.52    \nframe=   11 fps=0.4 q=50.7 size=       0KiB time=00:00:00.30 bitrate=   1.2kbits/s speed=0.00965x elapsed=0:00:31.08    \nframe=   11 fps=0.3 q=50.7 size=       0KiB time=00:00:00.30 bitrate=   1.2kbits/s speed=0.00949x elapsed=0:00:31.61    \nframe=   11 fps=0.3 q=50.7 size=       0KiB time=00:00:00.30 bitrate=   1.2kbits/s speed=0.00932x elapsed=0:00:32.17    \nframe=   11 fps=0.3 q=50.7 size=       0KiB time=00:00:00.30 bitrate=   1.2kbits/s speed=0.00917x elapsed=0:00:32.71    \nframe=   12 fps=0.4 q=46.3 size=       0KiB time=00:00:00.33 bitrate=   1.1kbits/s speed=0.01x elapsed=0:00:33.23    \nframe=   12 fps=0.4 q=46.3 size=       0KiB time=00:00:00.33 bitrate=   1.1kbits/s speed=0.00987x elapsed=0:00:33.75    \nframe=   12 fps=0.3 q=46.3 size=       0KiB time=00:00:00.33 bitrate=   1.1kbits/s speed=0.00972x elapsed=0:00:34.29    \nframe=   12 fps=0.3 q=46.3 size=       0KiB time=00:00:00.33 bitrate=   1.1kbits/s speed=0.00957x elapsed=0:00:34.84    \nframe=   12 fps=0.3 q=46.3 size=       0KiB time=00:00:00.33 bitrate=   1.1kbits/s speed=0.00943x elapsed=0:00:35.36    \nframe=   13 fps=0.4 q=48.4 size=       0KiB time=00:00:00.36 bitrate=   1.0kbits/s speed=0.0102x elapsed=0:00:35.88    \nframe=   13 fps=0.4 q=48.4 size=       0KiB time=00:00:00.36 bitrate=   1.0kbits/s speed=0.0101x elapsed=0:00:36.40    \nframe=   13 fps=0.4 q=48.4 size=       0KiB time=00:00:00.36 bitrate=   1.0kbits/s speed=0.00993x elapsed=0:00:36.93    \nframe=   13 fps=0.3 q=48.4 size=       0KiB time=00:00:00.36 bitrate=   1.0kbits/s speed=0.00979x elapsed=0:00:37.46    \nframe=   14 fps=0.4 q=49.7 size=       0KiB time=00:00:00.40 bitrate=   0.9kbits/s speed=0.0105x elapsed=0:00:37.97    \nframe=   14 fps=0.4 q=49.7 size=       0KiB time=00:00:00.40 bitrate=   0.9kbits/s speed=0.0104x elapsed=0:00:38.48    \nframe=   14 fps=0.4 q=49.7 size=       0KiB time=00:00:00.40 bitrate=   0.9kbits/s speed=0.0103x elapsed=0:00:39.00    \nframe=   14 fps=0.4 q=49.7 size=       0KiB time=00:00:00.40 bitrate=   0.9kbits/s speed=0.0101x elapsed=0:00:39.51    \nframe=   14 fps=0.3 q=49.7 size=       0KiB time=00:00:00.40 bitrate=   0.9kbits/s speed=0.00999x elapsed=0:00:40.03    \nframe=   15 fps=0.4 q=49.7 size=       0KiB time=00:00:00.43 bitrate=   0.8kbits/s speed=0.0107x elapsed=0:00:40.55    \nframe=   15 fps=0.4 q=49.7 size=       0KiB time=00:00:00.43 bitrate=   0.8kbits/s speed=0.0105x elapsed=0:00:41.08    \nframe=   15 fps=0.4 q=49.7 size=       0KiB time=00:00:00.43 bitrate=   0.8kbits/s speed=0.0104x elapsed=0:00:41.60    \nframe=   15 fps=0.4 q=49.7 size=       0KiB time=00:00:00.43 bitrate=   0.8kbits/s speed=0.0103x elapsed=0:00:42.12    \nframe=   16 fps=0.4 q=46.2 size=       0KiB time=00:00:00.46 bitrate=   0.8kbits/s speed=0.0109x elapsed=0:00:42.65    \nframe=   16 fps=0.4 q=46.2 size=       0KiB time=00:00:00.46 bitrate=   0.8kbits/s speed=0.0108x elapsed=0:00:43.17    \nframe=   16 fps=0.4 q=46.2 size=       0KiB time=00:00:00.46 bitrate=   0.8kbits/s speed=0.0107x elapsed=0:00:43.69    \nframe=   17 fps=0.4 q=47.3 size=       0KiB time=00:00:00.50 bitrate=   0.7kbits/s speed=0.0113x elapsed=0:00:44.20    \nframe=   17 fps=0.4 q=47.3 size=       0KiB time=00:00:00.50 bitrate=   0.7kbits/s speed=0.0112x elapsed=0:00:44.71    \nframe=   17 fps=0.4 q=47.3 size=       0KiB time=00:00:00.50 bitrate=   0.7kbits/s speed=0.0111x elapsed=0:00:45.24    \nframe=   17 fps=0.4 q=47.3 size=       0KiB time=00:00:00.50 bitrate=   0.7kbits/s speed=0.0109x elapsed=0:00:45.75    \nframe=   18 fps=0.4 q=49.3 size=       0KiB time=00:00:00.53 bitrate=   0.7kbits/s speed=0.0115x elapsed=0:00:46.27    \nframe=   18 fps=0.4 q=49.3 size=       0KiB time=00:00:00.53 bitrate=   0.7kbits/s speed=0.0114x elapsed=0:00:46.79    \nframe=   18 fps=0.4 q=49.3 size=       0KiB time=00:00:00.53 bitrate=   0.7kbits/s speed=0.0113x elapsed=0:00:47.30    \nframe=   19 fps=0.4 q=49.1 size=       0KiB time=00:00:00.56 bitrate=   0.6kbits/s speed=0.0118x elapsed=0:00:47.82    \nframe=   19 fps=0.4 q=49.1 size=       0KiB time=00:00:00.56 bitrate=   0.6kbits/s speed=0.0117x elapsed=0:00:48.35    \nframe=   19 fps=0.4 q=49.1 size=       0KiB time=00:00:00.56 bitrate=   0.6kbits/s speed=0.0116x elapsed=0:00:48.87    \nframe=   20 fps=0.4 q=46.5 size=       0KiB time=00:00:00.60 bitrate=   0.6kbits/s speed=0.0121x elapsed=0:00:49.38    \nframe=   20 fps=0.4 q=46.5 size=       0KiB time=00:00:00.60 bitrate=   0.6kbits/s speed=0.012x elapsed=0:00:49.90    \nframe=   20 fps=0.4 q=46.5 size=       0KiB time=00:00:00.60 bitrate=   0.6kbits/s speed=0.0119x elapsed=0:00:50.45    \nframe=   20 fps=0.4 q=46.5 size=       0KiB time=00:00:00.60 bitrate=   0.6kbits/s speed=0.0118x elapsed=0:00:51.00    \nframe=   21 fps=0.4 q=47.5 size=       0KiB time=00:00:00.63 bitrate=   0.6kbits/s speed=0.0123x elapsed=0:00:51.52    \nframe=   21 fps=0.4 q=47.5 size=       0KiB time=00:00:00.63 bitrate=   0.6kbits/s speed=0.0122x elapsed=0:00:52.04    \nframe=   21 fps=0.4 q=47.5 size=       0KiB time=00:00:00.63 bitrate=   0.6kbits/s speed=0.012x elapsed=0:00:52.58    \nframe=   21 fps=0.4 q=47.5 size=       0KiB time=00:00:00.63 bitrate=   0.6kbits/s speed=0.0119x elapsed=0:00:53.10    \nframe=   22 fps=0.4 q=49.2 size=       0KiB time=00:00:00.66 bitrate=   0.5kbits/s speed=0.0124x elapsed=0:00:53.63    \nframe=   22 fps=0.4 q=49.2 size=       0KiB time=00:00:00.66 bitrate=   0.5kbits/s speed=0.0123x elapsed=0:00:54.16    \nframe=   22 fps=0.4 q=49.2 size=       0KiB time=00:00:00.66 bitrate=   0.5kbits/s speed=0.0122x elapsed=0:00:54.68    \nframe=   22 fps=0.4 q=49.2 size=       0KiB time=00:00:00.66 bitrate=   0.5kbits/s speed=0.0121x elapsed=0:00:55.20    \nframe=   22 fps=0.4 q=49.2 size=       0KiB time=00:00:00.66 bitrate=   0.5kbits/s speed=0.012x elapsed=0:00:55.74    \nframe=   23 fps=0.4 q=49.0 size=       0KiB time=00:00:00.70 bitrate=   0.5kbits/s speed=0.0124x elapsed=0:00:56.26    \nframe=   23 fps=0.4 q=49.0 size=       0KiB time=00:00:00.70 bitrate=   0.5kbits/s speed=0.0123x elapsed=0:00:56.78    \nframe=   23 fps=0.4 q=49.0 size=       0KiB time=00:00:00.70 bitrate=   0.5kbits/s speed=0.0122x elapsed=0:00:57.32    \nframe=   24 fps=0.4 q=46.6 size=       0KiB time=00:00:00.73 bitrate=   0.5kbits/s speed=0.0127x elapsed=0:00:57.84    \nframe=   24 fps=0.4 q=46.6 size=       0KiB time=00:00:00.73 bitrate=   0.5kbits/s speed=0.0126x elapsed=0:00:58.36    \nframe=   25 fps=0.4 q=47.7 size=       0KiB time=00:00:00.76 bitrate=   0.5kbits/s speed=0.013x elapsed=0:00:58.87    \nframe=   25 fps=0.4 q=47.7 size=       0KiB time=00:00:00.76 bitrate=   0.5kbits/s speed=0.0129x elapsed=0:00:59.38    \nframe=   25 fps=0.4 q=47.7 size=       0KiB time=00:00:00.76 bitrate=   0.5kbits/s speed=0.0128x elapsed=0:00:59.90    \nframe=   26 fps=0.4 q=49.0 size=       0KiB time=00:00:00.80 bitrate=   0.4kbits/s speed=0.0132x elapsed=0:01:00.42    \nframe=   26 fps=0.4 q=49.0 size=       0KiB time=00:00:00.80 bitrate=   0.4kbits/s speed=0.0131x elapsed=0:01:00.94    \nframe=   27 fps=0.4 q=49.5 size=       0KiB time=00:00:00.83 bitrate=   0.4kbits/s speed=0.0136x elapsed=0:01:01.45    \nframe=   27 fps=0.4 q=49.5 size=       0KiB time=00:00:00.83 bitrate=   0.4kbits/s speed=0.0134x elapsed=0:01:01.96    \nframe=   28 fps=0.4 q=47.1 size=       0KiB time=00:00:00.86 bitrate=   0.4kbits/s speed=0.0139x elapsed=0:01:02.48    \nframe=   28 fps=0.4 q=47.1 size=       0KiB time=00:00:00.86 bitrate=   0.4kbits/s speed=0.0138x elapsed=0:01:02.99    \nframe=   29 fps=0.5 q=48.2 size=       0KiB time=00:00:00.90 bitrate=   0.4kbits/s speed=0.0142x elapsed=0:01:03.52    \nframe=   29 fps=0.5 q=48.2 size=       0KiB time=00:00:00.90 bitrate=   0.4kbits/s speed=0.0141x elapsed=0:01:04.03    \nframe=   30 fps=0.5 q=49.9 size=       0KiB time=00:00:00.93 bitrate=   0.4kbits/s speed=0.0145x elapsed=0:01:04.55    \nframe=   30 fps=0.5 q=49.9 size=       0KiB time=00:00:00.93 bitrate=   0.4kbits/s speed=0.0143x elapsed=0:01:05.06    \nframe=   30 fps=0.5 q=49.9 size=       0KiB time=00:00:00.93 bitrate=   0.4kbits/s speed=0.0142x elapsed=0:01:05.58    \nframe=   31 fps=0.5 q=50.0 size=       0KiB time=00:00:00.96 bitrate=   0.4kbits/s speed=0.0146x elapsed=0:01:06.09    \nframe=   31 fps=0.5 q=50.0 size=       0KiB time=00:00:00.96 bitrate=   0.4kbits/s speed=0.0145x elapsed=0:01:06.60    \nframe=   32 fps=0.5 q=50.2 size=       0KiB time=00:00:01.00 bitrate=   0.4kbits/s speed=0.0149x elapsed=0:01:07.12    \nframe=   32 fps=0.5 q=50.2 size=       0KiB time=00:00:01.00 bitrate=   0.4kbits/s speed=0.0148x elapsed=0:01:07.63    \nframe=   33 fps=0.5 q=46.9 size=       0KiB time=00:00:01.03 bitrate=   0.3kbits/s speed=0.0152x elapsed=0:01:08.15    \nframe=   33 fps=0.5 q=46.9 size=       0KiB time=00:00:01.03 bitrate=   0.3kbits/s speed=0.015x elapsed=0:01:08.67    \nframe=   34 fps=0.5 q=48.3 size=       0KiB time=00:00:01.06 bitrate=   0.3kbits/s speed=0.0154x elapsed=0:01:09.19    \nframe=   34 fps=0.5 q=48.3 size=       0KiB time=00:00:01.06 bitrate=   0.3kbits/s speed=0.0153x elapsed=0:01:09.70    \nframe=   35 fps=0.5 q=49.9 size=       0KiB time=00:00:01.10 bitrate=   0.3kbits/s speed=0.0157x elapsed=0:01:10.21    \nframe=   35 fps=0.5 q=49.9 size=       0KiB time=00:00:01.10 bitrate=   0.3kbits/s speed=0.0156x elapsed=0:01:10.73    \nframe=   35 fps=0.5 q=49.9 size=       0KiB time=00:00:01.10 bitrate=   0.3kbits/s speed=0.0154x elapsed=0:01:11.25    \nframe=   36 fps=0.5 q=49.9 size=       0KiB time=00:00:01.13 bitrate=   0.3kbits/s speed=0.0158x elapsed=0:01:11.77    \nframe=   36 fps=0.5 q=49.9 size=       0KiB time=00:00:01.13 bitrate=   0.3kbits/s speed=0.0157x elapsed=0:01:12.27    \nframe=   36 fps=0.5 q=49.9 size=       0KiB time=00:00:01.13 bitrate=   0.3kbits/s speed=0.0156x elapsed=0:01:12.80    \nframe=   37 fps=0.5 q=50.0 size=       0KiB time=00:00:01.16 bitrate=   0.3kbits/s speed=0.0159x elapsed=0:01:13.31    \nframe=   37 fps=0.5 q=50.0 size=       0KiB time=00:00:01.16 bitrate=   0.3kbits/s speed=0.0158x elapsed=0:01:13.82    \nframe=   38 fps=0.5 q=47.1 size=       0KiB time=00:00:01.20 bitrate=   0.3kbits/s speed=0.0161x elapsed=0:01:14.35    \nframe=   38 fps=0.5 q=47.1 size=       0KiB time=00:00:01.20 bitrate=   0.3kbits/s speed=0.016x elapsed=0:01:14.86    \nframe=   38 fps=0.5 q=47.1 size=       0KiB time=00:00:01.20 bitrate=   0.3kbits/s speed=0.0159x elapsed=0:01:15.37    \nframe=   39 fps=0.5 q=47.9 size=       0KiB time=00:00:01.23 bitrate=   0.3kbits/s speed=0.0163x elapsed=0:01:15.88    \nframe=   40 fps=0.5 q=49.7 size=       0KiB time=00:00:01.26 bitrate=   0.3kbits/s speed=0.0166x elapsed=0:01:16.41    \nframe=   40 fps=0.5 q=49.7 size=       0KiB time=00:00:01.26 bitrate=   0.3kbits/s speed=0.0165x elapsed=0:01:16.91    \nframe=   40 fps=0.5 q=49.7 size=       0KiB time=00:00:01.26 bitrate=   0.3kbits/s speed=0.0164x elapsed=0:01:17.43    \nframe=   41 fps=0.5 q=49.4 size=       0KiB time=00:00:01.30 bitrate=   0.3kbits/s speed=0.0167x elapsed=0:01:17.95    \nframe=   41 fps=0.5 q=49.4 size=       0KiB time=00:00:01.30 bitrate=   0.3kbits/s speed=0.0166x elapsed=0:01:18.46    \nframe=   41 fps=0.5 q=49.4 size=       0KiB time=00:00:01.30 bitrate=   0.3kbits/s speed=0.0165x elapsed=0:01:18.98    \nframe=   42 fps=0.5 q=49.8 size=       0KiB time=00:00:01.33 bitrate=   0.3kbits/s speed=0.0168x elapsed=0:01:19.49    \nframe=   42 fps=0.5 q=49.8 size=       0KiB time=00:00:01.33 bitrate=   0.3kbits/s speed=0.0167x elapsed=0:01:20.01    \nframe=   42 fps=0.5 q=49.8 size=       0KiB time=00:00:01.33 bitrate=   0.3kbits/s speed=0.0166x elapsed=0:01:20.53    \nframe=   43 fps=0.5 q=47.0 size=     256KiB time=00:00:01.36 bitrate=1534.8kbits/s speed=0.0169x elapsed=0:01:21.05    \nframe=   44 fps=0.5 q=48.2 size=     256KiB time=00:00:01.40 bitrate=1498.2kbits/s speed=0.0172x elapsed=0:01:21.56    \nframe=   44 fps=0.5 q=48.2 size=     256KiB time=00:00:01.40 bitrate=1498.2kbits/s speed=0.0171x elapsed=0:01:22.08    \nframe=   44 fps=0.5 q=48.2 size=     256KiB time=00:00:01.40 bitrate=1498.2kbits/s speed=0.0169x elapsed=0:01:22.60    \nframe=   45 fps=0.5 q=49.7 size=     256KiB time=00:00:01.43 bitrate=1463.4kbits/s speed=0.0172x elapsed=0:01:23.12    \nframe=   45 fps=0.5 q=49.7 size=     256KiB time=00:00:01.43 bitrate=1463.4kbits/s speed=0.0171x elapsed=0:01:23.64    \nframe=   46 fps=0.5 q=49.8 size=     256KiB time=00:00:01.46 bitrate=1430.1kbits/s speed=0.0174x elapsed=0:01:24.16    \nframe=   46 fps=0.5 q=49.8 size=     256KiB time=00:00:01.46 bitrate=1430.1kbits/s speed=0.0173x elapsed=0:01:24.69    \nframe=   46 fps=0.5 q=49.8 size=     256KiB time=00:00:01.46 bitrate=1430.1kbits/s speed=0.0172x elapsed=0:01:25.28    \nframe=   46 fps=0.5 q=49.8 size=     256KiB time=00:00:01.46 bitrate=1430.1kbits/s speed=0.0171x elapsed=0:01:25.80    \nframe=   46 fps=0.5 q=49.8 size=     256KiB time=00:00:01.46 bitrate=1430.1kbits/s speed=0.017x elapsed=0:01:26.32    \nframe=   47 fps=0.5 q=47.0 size=     256KiB time=00:00:01.50 bitrate=1398.3kbits/s speed=0.0173x elapsed=0:01:26.85    \nframe=   47 fps=0.5 q=47.0 size=     256KiB time=00:00:01.50 bitrate=1398.3kbits/s speed=0.0172x elapsed=0:01:27.38    \nframe=   48 fps=0.5 q=48.2 size=     256KiB time=00:00:01.53 bitrate=1367.9kbits/s speed=0.0174x elapsed=0:01:27.90    \nframe=   48 fps=0.5 q=48.2 size=     256KiB time=00:00:01.53 bitrate=1367.9kbits/s speed=0.0173x elapsed=0:01:28.44    \nframe=   48 fps=0.5 q=48.2 size=     256KiB time=00:00:01.53 bitrate=1367.9kbits/s speed=0.0172x elapsed=0:01:28.98    \nframe=   49 fps=0.5 q=49.9 size=     256KiB time=00:00:01.56 bitrate=1338.8kbits/s speed=0.0175x elapsed=0:01:29.51    \nframe=   49 fps=0.5 q=49.9 size=     256KiB time=00:00:01.56 bitrate=1338.8kbits/s speed=0.0174x elapsed=0:01:30.04    \nframe=   49 fps=0.5 q=49.9 size=     256KiB time=00:00:01.56 bitrate=1338.8kbits/s speed=0.0173x elapsed=0:01:30.57    \nframe=   49 fps=0.5 q=49.9 size=     256KiB time=00:00:01.56 bitrate=1338.8kbits/s speed=0.0172x elapsed=0:01:31.09    \nframe=   49 fps=0.5 q=49.9 size=     256KiB time=00:00:01.56 bitrate=1338.8kbits/s speed=0.0171x elapsed=0:01:31.62    \nframe=   49 fps=0.5 q=49.9 size=     256KiB time=00:00:01.56 bitrate=1338.8kbits/s speed=0.017x elapsed=0:01:32.14    \nframe=   49 fps=0.5 q=49.9 size=     256KiB time=00:00:01.56 bitrate=1338.8kbits/s speed=0.0169x elapsed=0:01:32.69    \nframe=   50 fps=0.5 q=49.7 size=     256KiB time=00:00:01.60 bitrate=1310.9kbits/s speed=0.0172x elapsed=0:01:33.22    \nframe=   50 fps=0.5 q=49.7 size=     256KiB time=00:00:01.60 bitrate=1310.9kbits/s speed=0.0171x elapsed=0:01:33.74    \nframe=   50 fps=0.5 q=49.7 size=     256KiB time=00:00:01.60 bitrate=1310.9kbits/s speed=0.017x elapsed=0:01:34.26    \nframe=   50 fps=0.5 q=49.7 size=     256KiB time=00:00:01.60 bitrate=1310.9kbits/s speed=0.0169x elapsed=0:01:34.78    \nframe=   50 fps=0.5 q=49.7 size=     256KiB time=00:00:01.60 bitrate=1310.9kbits/s speed=0.0168x elapsed=0:01:35.31    \nframe=   51 fps=0.5 q=50.0 size=     256KiB time=00:00:01.63 bitrate=1284.2kbits/s speed=0.017x elapsed=0:01:35.83    \nframe=   51 fps=0.5 q=50.0 size=     256KiB time=00:00:01.63 bitrate=1284.2kbits/s speed=0.0169x elapsed=0:01:36.36    \nframe=   51 fps=0.5 q=50.0 size=     256KiB time=00:00:01.63 bitrate=1284.2kbits/s speed=0.0169x elapsed=0:01:36.88    \nframe=   51 fps=0.5 q=50.0 size=     256KiB time=00:00:01.63 bitrate=1284.2kbits/s speed=0.0168x elapsed=0:01:37.41    \nframe=   52 fps=0.5 q=46.8 size=     256KiB time=00:00:01.66 bitrate=1258.5kbits/s speed=0.017x elapsed=0:01:37.94    \nframe=   52 fps=0.5 q=46.8 size=     256KiB time=00:00:01.66 bitrate=1258.5kbits/s speed=0.0169x elapsed=0:01:38.48    \nframe=   52 fps=0.5 q=46.8 size=     256KiB time=00:00:01.66 bitrate=1258.5kbits/s speed=0.0168x elapsed=0:01:39.02    \nframe=   52 fps=0.5 q=46.8 size=     256KiB time=00:00:01.66 bitrate=1258.5kbits/s speed=0.0167x elapsed=0:01:39.53    \nframe=   52 fps=0.5 q=46.8 size=     256KiB time=00:00:01.66 bitrate=1258.5kbits/s speed=0.0167x elapsed=0:01:40.05    \nframe=   53 fps=0.5 q=47.5 size=     256KiB time=00:00:01.70 bitrate=1233.8kbits/s speed=0.0169x elapsed=0:01:40.57    \nframe=   53 fps=0.5 q=47.5 size=     256KiB time=00:00:01.70 bitrate=1233.8kbits/s speed=0.0168x elapsed=0:01:41.10    \nframe=   53 fps=0.5 q=47.5 size=     256KiB time=00:00:01.70 bitrate=1233.8kbits/s speed=0.0167x elapsed=0:01:41.62    \nframe=   53 fps=0.5 q=47.5 size=     256KiB time=00:00:01.70 bitrate=1233.8kbits/s speed=0.0166x elapsed=0:01:42.14    \nframe=   54 fps=0.5 q=49.8 size=     256KiB time=00:00:01.73 bitrate=1210.1kbits/s speed=0.0169x elapsed=0:01:42.67    \nframe=   54 fps=0.5 q=49.8 size=     256KiB time=00:00:01.73 bitrate=1210.1kbits/s speed=0.0168x elapsed=0:01:43.19    \nframe=   54 fps=0.5 q=49.8 size=     256KiB time=00:00:01.73 bitrate=1210.1kbits/s speed=0.0167x elapsed=0:01:43.71    \nframe=   54 fps=0.5 q=49.8 size=     256KiB time=00:00:01.73 bitrate=1210.1kbits/s speed=0.0166x elapsed=0:01:44.24    \nframe=   54 fps=0.5 q=49.8 size=     256KiB time=00:00:01.73 bitrate=1210.1kbits/s speed=0.0165x elapsed=0:01:44.78    \nframe=   54 fps=0.5 q=49.8 size=     256KiB time=00:00:01.73 bitrate=1210.1kbits/s speed=0.0165x elapsed=0:01:45.29    \nframe=   54 fps=0.5 q=49.8 size=     256KiB time=00:00:01.73 bitrate=1210.1kbits/s speed=0.0164x elapsed=0:01:45.82    \nframe=   55 fps=0.5 q=49.5 size=     256KiB time=00:00:01.76 bitrate=1187.3kbits/s speed=0.0166x elapsed=0:01:46.34    \nframe=   55 fps=0.5 q=49.5 size=     256KiB time=00:00:01.76 bitrate=1187.3kbits/s speed=0.0165x elapsed=0:01:46.85    \nframe=   55 fps=0.5 q=49.5 size=     256KiB time=00:00:01.76 bitrate=1187.3kbits/s speed=0.0165x elapsed=0:01:47.38    \nframe=   55 fps=0.5 q=49.5 size=     256KiB time=00:00:01.76 bitrate=1187.3kbits/s speed=0.0164x elapsed=0:01:47.91    \nframe=   56 fps=0.5 q=49.9 size=     256KiB time=00:00:01.80 bitrate=1165.3kbits/s speed=0.0166x elapsed=0:01:48.42    \nframe=   56 fps=0.5 q=49.9 size=     256KiB time=00:00:01.80 bitrate=1165.3kbits/s speed=0.0165x elapsed=0:01:48.93    \nframe=   56 fps=0.5 q=49.9 size=     256KiB time=00:00:01.80 bitrate=1165.3kbits/s speed=0.0164x elapsed=0:01:49.45    \nframe=   56 fps=0.5 q=49.9 size=     256KiB time=00:00:01.80 bitrate=1165.3kbits/s speed=0.0164x elapsed=0:01:49.98    \nframe=   56 fps=0.5 q=49.9 size=     256KiB time=00:00:01.80 bitrate=1165.3kbits/s speed=0.0163x elapsed=0:01:50.52    \nframe=   56 fps=0.5 q=49.9 size=     256KiB time=00:00:01.80 bitrate=1165.3kbits/s speed=0.0162x elapsed=0:01:51.05    \nframe=   56 fps=0.5 q=49.9 size=     256KiB time=00:00:01.80 bitrate=1165.3kbits/s speed=0.0161x elapsed=0:01:51.60    \nframe=   57 fps=0.5 q=47.2 size=     256KiB time=00:00:01.83 bitrate=1144.1kbits/s speed=0.0164x elapsed=0:01:52.10    \nframe=   57 fps=0.5 q=47.2 size=     256KiB time=00:00:01.83 bitrate=1144.1kbits/s speed=0.0163x elapsed=0:01:52.64    \nframe=   57 fps=0.5 q=47.2 size=     256KiB time=00:00:01.83 bitrate=1144.1kbits/s speed=0.0162x elapsed=0:01:53.17    \nframe=   57 fps=0.5 q=47.2 size=     256KiB time=00:00:01.83 bitrate=1144.1kbits/s speed=0.0161x elapsed=0:01:53.68    \nframe=   57 fps=0.5 q=47.2 size=     256KiB time=00:00:01.83 bitrate=1144.1kbits/s speed=0.0161x elapsed=0:01:54.21    \nframe=   58 fps=0.5 q=47.4 size=     256KiB time=00:00:01.86 bitrate=1123.7kbits/s speed=0.0163x elapsed=0:01:54.77    \nframe=   58 fps=0.5 q=47.4 size=     256KiB time=00:00:01.86 bitrate=1123.7kbits/s speed=0.0162x elapsed=0:01:55.30    \nframe=   58 fps=0.5 q=47.4 size=     256KiB time=00:00:01.86 bitrate=1123.7kbits/s speed=0.0161x elapsed=0:01:55.80    \nframe=   59 fps=0.5 q=49.5 size=     256KiB time=00:00:01.90 bitrate=1103.9kbits/s speed=0.0163x elapsed=0:01:56.32    \nframe=   59 fps=0.5 q=49.5 size=     256KiB time=00:00:01.90 bitrate=1103.9kbits/s speed=0.0163x elapsed=0:01:56.84    \nframe=   59 fps=0.5 q=49.5 size=     256KiB time=00:00:01.90 bitrate=1103.9kbits/s speed=0.0162x elapsed=0:01:57.35    \nframe=   59 fps=0.5 q=49.5 size=     256KiB time=00:00:01.90 bitrate=1103.9kbits/s speed=0.0161x elapsed=0:01:57.89    \nframe=   59 fps=0.5 q=49.5 size=     256KiB time=00:00:01.90 bitrate=1103.9kbits/s speed=0.016x elapsed=0:01:58.42    \nframe=   59 fps=0.5 q=49.5 size=     256KiB time=00:00:01.90 bitrate=1103.9kbits/s speed=0.016x elapsed=0:01:58.96    \nframe=   59 fps=0.5 q=49.5 size=     256KiB time=00:00:01.90 bitrate=1103.9kbits/s speed=0.0159x elapsed=0:01:59.51    \nframe=   60 fps=0.5 q=49.3 size=     256KiB time=00:00:01.93 bitrate=1084.9kbits/s speed=0.0161x elapsed=0:02:00.05    \nframe=   60 fps=0.5 q=49.3 size=     256KiB time=00:00:01.93 bitrate=1084.9kbits/s speed=0.016x elapsed=0:02:00.59    \nframe=   60 fps=0.5 q=49.3 size=     256KiB time=00:00:01.93 bitrate=1084.9kbits/s speed=0.016x elapsed=0:02:01.15    \nframe=   60 fps=0.5 q=49.3 size=     256KiB time=00:00:01.93 bitrate=1084.9kbits/s speed=0.0159x elapsed=0:02:01.71    \nframe=   60 fps=0.5 q=49.3 size=     256KiB time=00:00:01.93 bitrate=1084.9kbits/s speed=0.0158x elapsed=0:02:02.23    \nframe=   60 fps=0.5 q=49.3 size=     256KiB time=00:00:01.93 bitrate=1084.9kbits/s speed=0.0157x elapsed=0:02:02.80    \nframe=   60 fps=0.5 q=49.3 size=     256KiB time=00:00:01.93 bitrate=1084.9kbits/s speed=0.0157x elapsed=0:02:03.32    \nframe=   61 fps=0.5 q=49.3 size=     256KiB time=00:00:01.96 bitrate=1066.5kbits/s speed=0.0159x elapsed=0:02:03.87    \nframe=   61 fps=0.5 q=49.3 size=     256KiB time=00:00:01.96 bitrate=1066.5kbits/s speed=0.0158x elapsed=0:02:04.44    \nframe=   61 fps=0.5 q=49.3 size=     256KiB time=00:00:01.96 bitrate=1066.5kbits/s speed=0.0157x elapsed=0:02:04.98    \nframe=   61 fps=0.5 q=49.3 size=     256KiB time=00:00:01.96 bitrate=1066.5kbits/s speed=0.0157x elapsed=0:02:05.51    \nframe=   61 fps=0.5 q=49.3 size=     256KiB time=00:00:01.96 bitrate=1066.5kbits/s speed=0.0156x elapsed=0:02:06.09    \nframe=   61 fps=0.5 q=49.3 size=     256KiB time=00:00:01.96 bitrate=1066.5kbits/s speed=0.0155x elapsed=0:02:06.67    \nframe=   61 fps=0.5 q=49.3 size=     256KiB time=00:00:01.96 bitrate=1066.5kbits/s speed=0.0155x elapsed=0:02:07.21    \nframe=   62 fps=0.5 q=46.9 size=     256KiB time=00:00:02.00 bitrate=1048.8kbits/s speed=0.0157x elapsed=0:02:07.74    \nframe=   62 fps=0.5 q=46.9 size=     256KiB time=00:00:02.00 bitrate=1048.8kbits/s speed=0.0156x elapsed=0:02:08.28    \nframe=   63 fps=0.5 q=47.9 size=     256KiB time=00:00:02.03 bitrate=1031.6kbits/s speed=0.0158x elapsed=0:02:08.81    \nframe=   63 fps=0.5 q=47.9 size=     256KiB time=00:00:02.03 bitrate=1031.6kbits/s speed=0.0157x elapsed=0:02:09.35    \nframe=   63 fps=0.5 q=47.9 size=     256KiB time=00:00:02.03 bitrate=1031.6kbits/s speed=0.0157x elapsed=0:02:09.87    \nframe=   63 fps=0.5 q=47.9 size=     256KiB time=00:00:02.03 bitrate=1031.6kbits/s speed=0.0156x elapsed=0:02:10.39    \nframe=   63 fps=0.5 q=47.9 size=     256KiB time=00:00:02.03 bitrate=1031.6kbits/s speed=0.0155x elapsed=0:02:10.90    \nframe=   64 fps=0.5 q=49.6 size=     256KiB time=00:00:02.06 bitrate=1014.9kbits/s speed=0.0157x elapsed=0:02:11.43    \nframe=   64 fps=0.5 q=49.6 size=     256KiB time=00:00:02.06 bitrate=1014.9kbits/s speed=0.0157x elapsed=0:02:11.96    \nframe=   64 fps=0.5 q=49.6 size=     256KiB time=00:00:02.06 bitrate=1014.9kbits/s speed=0.0156x elapsed=0:02:12.49    \nframe=   65 fps=0.5 q=49.7 size=     256KiB time=00:00:02.10 bitrate= 998.8kbits/s speed=0.0158x elapsed=0:02:12.99    \nframe=   65 fps=0.5 q=49.7 size=     256KiB time=00:00:02.10 bitrate= 998.8kbits/s speed=0.0157x elapsed=0:02:13.51    \nframe=   66 fps=0.5 q=46.8 size=     256KiB time=00:00:02.13 bitrate= 983.2kbits/s speed=0.0159x elapsed=0:02:14.03    \nframe=   67 fps=0.5 q=47.7 size=     256KiB time=00:00:02.16 bitrate= 968.1kbits/s speed=0.0161x elapsed=0:02:14.55    \nframe=   67 fps=0.5 q=47.7 size=     256KiB time=00:00:02.16 bitrate= 968.1kbits/s speed=0.016x elapsed=0:02:15.06    \nframe=   68 fps=0.5 q=49.6 size=     256KiB time=00:00:02.20 bitrate= 953.4kbits/s speed=0.0162x elapsed=0:02:15.58    \nframe=   68 fps=0.5 q=49.6 size=     256KiB time=00:00:02.20 bitrate= 953.4kbits/s speed=0.0162x elapsed=0:02:16.17    \nframe=   69 fps=0.5 q=49.6 size=     256KiB time=00:00:02.23 bitrate= 939.2kbits/s speed=0.0163x elapsed=0:02:16.70    \nframe=   69 fps=0.5 q=49.6 size=     256KiB time=00:00:02.23 bitrate= 939.2kbits/s speed=0.0163x elapsed=0:02:17.21    \nframe=   69 fps=0.5 q=49.6 size=     256KiB time=00:00:02.23 bitrate= 939.2kbits/s speed=0.0162x elapsed=0:02:17.73    \nframe=   69 fps=0.5 q=49.6 size=     256KiB time=00:00:02.23 bitrate= 939.2kbits/s speed=0.0162x elapsed=0:02:18.25    \nframe=   70 fps=0.5 q=49.5 size=     256KiB time=00:00:02.26 bitrate= 925.4kbits/s speed=0.0163x elapsed=0:02:18.76    \nframe=   70 fps=0.5 q=49.5 size=     256KiB time=00:00:02.26 bitrate= 925.4kbits/s speed=0.0163x elapsed=0:02:19.27    \nframe=   70 fps=0.5 q=49.5 size=     256KiB time=00:00:02.26 bitrate= 925.4kbits/s speed=0.0162x elapsed=0:02:19.81    \nframe=   70 fps=0.5 q=49.5 size=     256KiB time=00:00:02.26 bitrate= 925.4kbits/s speed=0.0162x elapsed=0:02:20.34    \nframe=   70 fps=0.5 q=49.5 size=     256KiB time=00:00:02.26 bitrate= 925.4kbits/s speed=0.0161x elapsed=0:02:20.87    \nframe=   71 fps=0.5 q=47.1 size=     256KiB time=00:00:02.30 bitrate= 912.0kbits/s speed=0.0163x elapsed=0:02:21.38    \nframe=   71 fps=0.5 q=47.1 size=     256KiB time=00:00:02.30 bitrate= 912.0kbits/s speed=0.0162x elapsed=0:02:21.90    \nframe=   71 fps=0.5 q=47.1 size=     256KiB time=00:00:02.30 bitrate= 912.0kbits/s speed=0.0161x elapsed=0:02:22.42    \nframe=   71 fps=0.5 q=47.1 size=     256KiB time=00:00:02.30 bitrate= 912.0kbits/s speed=0.0161x elapsed=0:02:22.94    \nframe=   72 fps=0.5 q=48.1 size=     256KiB time=00:00:02.33 bitrate= 898.9kbits/s speed=0.0163x elapsed=0:02:23.46    \nframe=   73 fps=0.5 q=50.2 size=     256KiB time=00:00:02.36 bitrate= 886.3kbits/s speed=0.0164x elapsed=0:02:23.99    \nframe=   73 fps=0.5 q=50.2 size=     256KiB time=00:00:02.36 bitrate= 886.3kbits/s speed=0.0164x elapsed=0:02:24.52    \nframe=   73 fps=0.5 q=50.2 size=     256KiB time=00:00:02.36 bitrate= 886.3kbits/s speed=0.0163x elapsed=0:02:25.06    \nframe=   73 fps=0.5 q=50.2 size=     256KiB time=00:00:02.36 bitrate= 886.3kbits/s speed=0.0163x elapsed=0:02:25.60    \nframe=   73 fps=0.5 q=50.2 size=     256KiB time=00:00:02.36 bitrate= 886.3kbits/s speed=0.0162x elapsed=0:02:26.12    \nframe=   73 fps=0.5 q=50.2 size=     256KiB time=00:00:02.36 bitrate= 886.3kbits/s speed=0.0161x elapsed=0:02:26.69    \nframe=   73 fps=0.5 q=50.2 size=     256KiB time=00:00:02.36 bitrate= 886.3kbits/s speed=0.0161x elapsed=0:02:27.22    \nframe=   73 fps=0.5 q=50.2 size=     256KiB time=00:00:02.36 bitrate= 886.3kbits/s speed=0.016x elapsed=0:02:27.82    \nframe=   73 fps=0.5 q=50.2 size=     256KiB time=00:00:02.36 bitrate= 886.3kbits/s speed=0.0159x elapsed=0:02:28.46    \nframe=   73 fps=0.5 q=50.2 size=     256KiB time=00:00:02.36 bitrate= 886.3kbits/s speed=0.0159x elapsed=0:02:29.05    \nframe=   73 fps=0.5 q=50.2 size=     256KiB time=00:00:02.36 bitrate= 886.3kbits/s speed=0.0158x elapsed=0:02:29.59    \nframe=   73 fps=0.5 q=50.2 size=     256KiB time=00:00:02.36 bitrate= 886.3kbits/s speed=0.0158x elapsed=0:02:30.18    \nframe=   73 fps=0.5 q=50.2 size=     256KiB time=00:00:02.36 bitrate= 886.3kbits/s speed=0.0157x elapsed=0:02:30.71    \nframe=   73 fps=0.5 q=50.2 size=     256KiB time=00:00:02.36 bitrate= 886.3kbits/s speed=0.0156x elapsed=0:02:31.25    \nframe=   73 fps=0.5 q=50.2 size=     256KiB time=00:00:02.36 bitrate= 886.3kbits/s speed=0.0156x elapsed=0:02:31.80    \nframe=   73 fps=0.5 q=50.2 size=     256KiB time=00:00:02.36 bitrate= 886.3kbits/s speed=0.0155x elapsed=0:02:32.36    \nframe=   73 fps=0.5 q=50.2 size=     256KiB time=00:00:02.36 bitrate= 886.3kbits/s speed=0.0155x elapsed=0:02:32.90    \nframe=   73 fps=0.5 q=50.2 size=     256KiB time=00:00:02.36 bitrate= 886.3kbits/s speed=0.0154x elapsed=0:02:33.47    \nframe=   74 fps=0.5 q=49.5 size=     256KiB time=00:00:02.40 bitrate= 874.0kbits/s speed=0.0156x elapsed=0:02:34.05    \nframe=   74 fps=0.5 q=49.5 size=     256KiB time=00:00:02.40 bitrate= 874.0kbits/s speed=0.0155x elapsed=0:02:34.62    \nframe=   74 fps=0.5 q=49.5 size=     256KiB time=00:00:02.40 bitrate= 874.0kbits/s speed=0.0155x elapsed=0:02:35.14    \nframe=   74 fps=0.5 q=49.5 size=     256KiB time=00:00:02.40 bitrate= 874.0kbits/s speed=0.0154x elapsed=0:02:35.71    \nframe=   74 fps=0.5 q=49.5 size=     256KiB time=00:00:02.40 bitrate= 874.0kbits/s speed=0.0154x elapsed=0:02:36.26    \nframe=   74 fps=0.5 q=49.5 size=     256KiB time=00:00:02.40 bitrate= 874.0kbits/s speed=0.0153x elapsed=0:02:36.79    \nframe=   74 fps=0.5 q=49.5 size=     256KiB time=00:00:02.40 bitrate= 874.0kbits/s speed=0.0153x elapsed=0:02:37.34    \nframe=   74 fps=0.5 q=49.5 size=     256KiB time=00:00:02.40 bitrate= 874.0kbits/s speed=0.0152x elapsed=0:02:37.89    \nframe=   74 fps=0.5 q=49.5 size=     256KiB time=00:00:02.40 bitrate= 874.0kbits/s speed=0.0151x elapsed=0:02:38.42    \nframe=   74 fps=0.5 q=49.5 size=     256KiB time=00:00:02.40 bitrate= 874.0kbits/s speed=0.0151x elapsed=0:02:38.97    \nframe=   75 fps=0.5 q=46.8 size=     256KiB time=00:00:02.43 bitrate= 862.0kbits/s speed=0.0153x elapsed=0:02:39.52    \nframe=   75 fps=0.5 q=46.8 size=     256KiB time=00:00:02.43 bitrate= 862.0kbits/s speed=0.0152x elapsed=0:02:40.05    \nframe=   75 fps=0.5 q=46.8 size=     256KiB time=00:00:02.43 bitrate= 862.0kbits/s speed=0.0152x elapsed=0:02:40.58    \nframe=   75 fps=0.5 q=46.8 size=     256KiB time=00:00:02.43 bitrate= 862.0kbits/s speed=0.0151x elapsed=0:02:41.13    \nframe=   75 fps=0.5 q=46.8 size=     256KiB time=00:00:02.43 bitrate= 862.0kbits/s speed=0.0151x elapsed=0:02:41.65    \nframe=   75 fps=0.5 q=46.8 size=     256KiB time=00:00:02.43 bitrate= 862.0kbits/s speed=0.015x elapsed=0:02:42.19    \nframe=   75 fps=0.5 q=46.8 size=     256KiB time=00:00:02.43 bitrate= 862.0kbits/s speed=0.015x elapsed=0:02:42.70    \nframe=   75 fps=0.5 q=46.8 size=     256KiB time=00:00:02.43 bitrate= 862.0kbits/s speed=0.0149x elapsed=0:02:43.22    \nframe=   76 fps=0.5 q=47.5 size=     256KiB time=00:00:02.46 bitrate= 850.3kbits/s speed=0.0151x elapsed=0:02:43.75    \nframe=   76 fps=0.5 q=47.5 size=     256KiB time=00:00:02.46 bitrate= 850.3kbits/s speed=0.015x elapsed=0:02:44.33    \nframe=   76 fps=0.5 q=47.5 size=     256KiB time=00:00:02.46 bitrate= 850.3kbits/s speed=0.015x elapsed=0:02:44.85    \nframe=   77 fps=0.5 q=49.6 size=     256KiB time=00:00:02.50 bitrate= 839.0kbits/s speed=0.0151x elapsed=0:02:45.37    \nframe=   77 fps=0.5 q=49.6 size=     256KiB time=00:00:02.50 bitrate= 839.0kbits/s speed=0.0151x elapsed=0:02:45.90    \nframe=   77 fps=0.5 q=49.6 size=     256KiB time=00:00:02.50 bitrate= 839.0kbits/s speed=0.015x elapsed=0:02:46.43    \nframe=   77 fps=0.5 q=49.6 size=     256KiB time=00:00:02.50 bitrate= 839.0kbits/s speed=0.015x elapsed=0:02:46.95    \nframe=   77 fps=0.5 q=49.6 size=     256KiB time=00:00:02.50 bitrate= 839.0kbits/s speed=0.0149x elapsed=0:02:47.51    \nframe=   77 fps=0.5 q=49.6 size=     256KiB time=00:00:02.50 bitrate= 839.0kbits/s speed=0.0149x elapsed=0:02:48.05    \nframe=   78 fps=0.5 q=48.9 size=     256KiB time=00:00:02.53 bitrate= 828.0kbits/s speed=0.015x elapsed=0:02:48.57    \nframe=   78 fps=0.5 q=48.9 size=     256KiB time=00:00:02.53 bitrate= 828.0kbits/s speed=0.015x elapsed=0:02:49.10    \nframe=   78 fps=0.5 q=48.9 size=     256KiB time=00:00:02.53 bitrate= 828.0kbits/s speed=0.0149x elapsed=0:02:49.62    \nframe=   78 fps=0.5 q=48.9 size=     256KiB time=00:00:02.53 bitrate= 828.0kbits/s speed=0.0149x elapsed=0:02:50.15    \nframe=   78 fps=0.5 q=48.9 size=     256KiB time=00:00:02.53 bitrate= 828.0kbits/s speed=0.0148x elapsed=0:02:50.70    \nframe=   79 fps=0.5 q=49.2 size=     256KiB time=00:00:02.56 bitrate= 817.2kbits/s speed=0.015x elapsed=0:02:51.21    \nframe=   79 fps=0.5 q=49.2 size=     256KiB time=00:00:02.56 bitrate= 817.2kbits/s speed=0.0149x elapsed=0:02:51.73    \nframe=   79 fps=0.5 q=49.2 size=     256KiB time=00:00:02.56 bitrate= 817.2kbits/s speed=0.0149x elapsed=0:02:52.25    \nframe=   79 fps=0.5 q=49.2 size=     256KiB time=00:00:02.56 bitrate= 817.2kbits/s speed=0.0149x elapsed=0:02:52.81    \nframe=   79 fps=0.5 q=49.2 size=     256KiB time=00:00:02.56 bitrate= 817.2kbits/s speed=0.0148x elapsed=0:02:53.35    \nframe=   80 fps=0.5 q=46.3 size=     256KiB time=00:00:02.60 bitrate= 806.7kbits/s speed=0.015x elapsed=0:02:53.91    \nframe=   80 fps=0.5 q=46.3 size=     256KiB time=00:00:02.60 bitrate= 806.7kbits/s speed=0.0149x elapsed=0:02:54.46    \nframe=   81 fps=0.5 q=47.1 size=     256KiB time=00:00:02.60 bitrate= 806.7kbits/s speed=0.0149x elapsed=0:02:55.00    \nframe=   81 fps=0.5 q=47.1 size=     256KiB time=00:00:02.63 bitrate= 796.5kbits/s speed=0.015x elapsed=0:02:55.53    \nframe=   81 fps=0.5 q=47.1 size=     256KiB time=00:00:02.63 bitrate= 796.5kbits/s speed=0.015x elapsed=0:02:56.04    \nframe=   81 fps=0.5 q=47.1 size=     256KiB time=00:00:02.63 bitrate= 796.5kbits/s speed=0.0149x elapsed=0:02:56.55    \nframe=   82 fps=0.5 q=48.8 size=     256KiB time=00:00:02.63 bitrate= 796.5kbits/s speed=0.0149x elapsed=0:02:57.10    \nframe=   82 fps=0.5 q=48.8 size=     256KiB time=00:00:02.66 bitrate= 786.6kbits/s speed=0.015x elapsed=0:02:57.64    \nframe=   82 fps=0.5 q=48.8 size=     256KiB time=00:00:02.66 bitrate= 786.6kbits/s speed=0.015x elapsed=0:02:58.19    \nframe=   83 fps=0.5 q=48.7 size=     256KiB time=00:00:02.70 bitrate= 776.9kbits/s speed=0.0151x elapsed=0:02:58.74    \nframe=   83 fps=0.5 q=48.7 size=     256KiB time=00:00:02.70 bitrate= 776.9kbits/s speed=0.0151x elapsed=0:02:59.27    \nframe=   84 fps=0.5 q=48.7 size=     256KiB time=00:00:02.73 bitrate= 767.4kbits/s speed=0.0152x elapsed=0:02:59.78    \nframe=   84 fps=0.5 q=48.7 size=     256KiB time=00:00:02.73 bitrate= 767.4kbits/s speed=0.0152x elapsed=0:03:00.33    \nframe=   84 fps=0.5 q=48.7 size=     256KiB time=00:00:02.73 bitrate= 767.4kbits/s speed=0.0151x elapsed=0:03:00.86    \nframe=   84 fps=0.5 q=48.7 size=     256KiB time=00:00:02.73 bitrate= 767.4kbits/s speed=0.0151x elapsed=0:03:01.38    \nframe=   85 fps=0.5 q=46.5 size=     256KiB time=00:00:02.76 bitrate= 758.1kbits/s speed=0.0152x elapsed=0:03:01.91    \nframe=   85 fps=0.5 q=46.5 size=     256KiB time=00:00:02.76 bitrate= 758.1kbits/s speed=0.0152x elapsed=0:03:02.43    \nframe=   85 fps=0.5 q=46.5 size=     256KiB time=00:00:02.76 bitrate= 758.1kbits/s speed=0.0151x elapsed=0:03:02.98    \nframe=   85 fps=0.5 q=46.5 size=     256KiB time=00:00:02.76 bitrate= 758.1kbits/s speed=0.0151x elapsed=0:03:03.50    \nframe=   85 fps=0.5 q=46.5 size=     256KiB time=00:00:02.76 bitrate= 758.1kbits/s speed=0.015x elapsed=0:03:04.02    \nframe=   85 fps=0.5 q=46.5 size=     256KiB time=00:00:02.76 bitrate= 758.1kbits/s speed=0.015x elapsed=0:03:04.57    \nframe=   86 fps=0.5 q=47.0 size=     256KiB time=00:00:02.80 bitrate= 749.1kbits/s speed=0.0151x elapsed=0:03:05.11    \nframe=   86 fps=0.5 q=47.0 size=     256KiB time=00:00:02.80 bitrate= 749.1kbits/s speed=0.0151x elapsed=0:03:05.65    \nframe=   86 fps=0.5 q=47.0 size=     256KiB time=00:00:02.80 bitrate= 749.1kbits/s speed=0.015x elapsed=0:03:06.19    \nframe=   87 fps=0.5 q=48.7 size=     512KiB time=00:00:02.83 bitrate=1480.5kbits/s speed=0.0152x elapsed=0:03:06.71    \nframe=   87 fps=0.5 q=48.7 size=     512KiB time=00:00:02.83 bitrate=1480.5kbits/s speed=0.0151x elapsed=0:03:07.23    \nframe=   87 fps=0.5 q=48.7 size=     512KiB time=00:00:02.83 bitrate=1480.5kbits/s speed=0.0151x elapsed=0:03:07.76    \nframe=   87 fps=0.5 q=48.7 size=     512KiB time=00:00:02.83 bitrate=1480.5kbits/s speed=0.015x elapsed=0:03:08.31    \nframe=   87 fps=0.5 q=48.7 size=     512KiB time=00:00:02.83 bitrate=1480.5kbits/s speed=0.015x elapsed=0:03:08.82    \nframe=   87 fps=0.5 q=48.7 size=     512KiB time=00:00:02.83 bitrate=1480.5kbits/s speed=0.015x elapsed=0:03:09.34    \nframe=   88 fps=0.5 q=48.6 size=     512KiB time=00:00:02.86 bitrate=1463.3kbits/s speed=0.0151x elapsed=0:03:09.85    \nframe=   88 fps=0.5 q=48.6 size=     512KiB time=00:00:02.86 bitrate=1463.3kbits/s speed=0.0151x elapsed=0:03:10.38    \nframe=   88 fps=0.5 q=48.6 size=     512KiB time=00:00:02.86 bitrate=1463.3kbits/s speed=0.015x elapsed=0:03:10.91    \nframe=   88 fps=0.5 q=48.6 size=     512KiB time=00:00:02.86 bitrate=1463.3kbits/s speed=0.015x elapsed=0:03:11.43    \nframe=   89 fps=0.5 q=48.8 size=     512KiB time=00:00:02.90 bitrate=1446.4kbits/s speed=0.0151x elapsed=0:03:12.00    \nframe=   89 fps=0.5 q=48.8 size=     512KiB time=00:00:02.90 bitrate=1446.4kbits/s speed=0.0151x elapsed=0:03:12.52    \nframe=   89 fps=0.5 q=48.8 size=     512KiB time=00:00:02.90 bitrate=1446.4kbits/s speed=0.015x elapsed=0:03:13.05    \nframe=   89 fps=0.5 q=48.8 size=     512KiB time=00:00:02.90 bitrate=1446.4kbits/s speed=0.015x elapsed=0:03:13.60    \nframe=   89 fps=0.5 q=48.8 size=     512KiB time=00:00:02.90 bitrate=1446.4kbits/s speed=0.0149x elapsed=0:03:14.14    \nframe=   90 fps=0.5 q=46.4 size=     512KiB time=00:00:02.93 bitrate=1430.0kbits/s speed=0.0151x elapsed=0:03:14.66    \nframe=   90 fps=0.5 q=46.4 size=     512KiB time=00:00:02.93 bitrate=1430.0kbits/s speed=0.015x elapsed=0:03:15.20    \nframe=   90 fps=0.5 q=46.4 size=     512KiB time=00:00:02.93 bitrate=1430.0kbits/s speed=0.015x elapsed=0:03:15.72    \nframe=   91 fps=0.5 q=47.5 size=     512KiB time=00:00:02.96 bitrate=1413.9kbits/s speed=0.0151x elapsed=0:03:16.24    \nframe=   91 fps=0.5 q=47.5 size=     512KiB time=00:00:02.96 bitrate=1413.9kbits/s speed=0.0151x elapsed=0:03:16.75    \nframe=   91 fps=0.5 q=47.5 size=     512KiB time=00:00:02.96 bitrate=1413.9kbits/s speed=0.015x elapsed=0:03:17.27    \nframe=   91 fps=0.5 q=47.5 size=     512KiB time=00:00:02.96 bitrate=1413.9kbits/s speed=0.015x elapsed=0:03:17.80    \nframe=   92 fps=0.5 q=48.7 size=     512KiB time=00:00:03.00 bitrate=1398.2kbits/s speed=0.0151x elapsed=0:03:18.31    \nframe=   92 fps=0.5 q=48.7 size=     512KiB time=00:00:03.00 bitrate=1398.2kbits/s speed=0.0151x elapsed=0:03:18.82    \nframe=   92 fps=0.5 q=48.7 size=     512KiB time=00:00:03.00 bitrate=1398.2kbits/s speed=0.015x elapsed=0:03:19.35    \nframe=   92 fps=0.5 q=48.7 size=     512KiB time=00:00:03.00 bitrate=1398.2kbits/s speed=0.015x elapsed=0:03:19.87    \nframe=   92 fps=0.5 q=48.7 size=     512KiB time=00:00:03.00 bitrate=1398.2kbits/s speed=0.015x elapsed=0:03:20.38    \nframe=   92 fps=0.5 q=48.7 size=     512KiB time=00:00:03.00 bitrate=1398.2kbits/s speed=0.0149x elapsed=0:03:20.90    \nframe=   93 fps=0.5 q=48.9 size=     512KiB time=00:00:03.03 bitrate=1382.9kbits/s speed=0.0151x elapsed=0:03:21.42    \nframe=   93 fps=0.5 q=48.9 size=     512KiB time=00:00:03.03 bitrate=1382.9kbits/s speed=0.015x elapsed=0:03:21.96    \nframe=   93 fps=0.5 q=48.9 size=     512KiB time=00:00:03.03 bitrate=1382.9kbits/s speed=0.015x elapsed=0:03:22.50    \nframe=   93 fps=0.5 q=48.9 size=     512KiB time=00:00:03.03 bitrate=1382.9kbits/s speed=0.0149x elapsed=0:03:23.02    \nframe=   93 fps=0.5 q=48.9 size=     512KiB time=00:00:03.03 bitrate=1382.9kbits/s speed=0.0149x elapsed=0:03:23.53    \nframe=   94 fps=0.5 q=48.6 size=     512KiB time=00:00:03.06 bitrate=1367.8kbits/s speed=0.015x elapsed=0:03:24.04    \nframe=   95 fps=0.5 q=46.3 size=     512KiB time=00:00:03.10 bitrate=1353.1kbits/s speed=0.0152x elapsed=0:03:24.57    \nframe=   95 fps=0.5 q=46.3 size=     512KiB time=00:00:03.10 bitrate=1353.1kbits/s speed=0.0151x elapsed=0:03:25.09    \nframe=   95 fps=0.5 q=46.3 size=     512KiB time=00:00:03.10 bitrate=1353.1kbits/s speed=0.0151x elapsed=0:03:25.62    \nframe=   95 fps=0.5 q=46.3 size=     512KiB time=00:00:03.10 bitrate=1353.1kbits/s speed=0.015x elapsed=0:03:26.15    \nframe=   96 fps=0.5 q=47.3 size=     512KiB time=00:00:03.13 bitrate=1338.7kbits/s speed=0.0152x elapsed=0:03:26.70    \nframe=   96 fps=0.5 q=47.3 size=     512KiB time=00:00:03.13 bitrate=1338.7kbits/s speed=0.0151x elapsed=0:03:27.21    \nframe=   96 fps=0.5 q=47.3 size=     512KiB time=00:00:03.13 bitrate=1338.7kbits/s speed=0.0151x elapsed=0:03:27.73    \nframe=   96 fps=0.5 q=47.3 size=     512KiB time=00:00:03.13 bitrate=1338.7kbits/s speed=0.015x elapsed=0:03:28.24    \nframe=   97 fps=0.5 q=48.8 size=     512KiB time=00:00:03.16 bitrate=1324.6kbits/s speed=0.0152x elapsed=0:03:28.76    \nframe=   97 fps=0.5 q=48.8 size=     512KiB time=00:00:03.16 bitrate=1324.6kbits/s speed=0.0151x elapsed=0:03:29.29    \nframe=   97 fps=0.5 q=48.8 size=     512KiB time=00:00:03.16 bitrate=1324.6kbits/s speed=0.0151x elapsed=0:03:29.84    \nframe=   97 fps=0.5 q=48.8 size=     512KiB time=00:00:03.16 bitrate=1324.6kbits/s speed=0.015x elapsed=0:03:30.43    \nframe=   98 fps=0.5 q=48.4 size=     512KiB time=00:00:03.20 bitrate=1310.8kbits/s speed=0.0152x elapsed=0:03:30.98    \nframe=   98 fps=0.5 q=48.4 size=     512KiB time=00:00:03.20 bitrate=1310.8kbits/s speed=0.0151x elapsed=0:03:31.51    \nframe=   99 fps=0.5 q=48.7 size=     512KiB time=00:00:03.23 bitrate=1297.3kbits/s speed=0.0152x elapsed=0:03:32.03    \nframe=   99 fps=0.5 q=48.7 size=     512KiB time=00:00:03.23 bitrate=1297.3kbits/s speed=0.0152x elapsed=0:03:32.61    \nframe=  100 fps=0.5 q=46.4 size=     512KiB time=00:00:03.26 bitrate=1284.1kbits/s speed=0.0153x elapsed=0:03:33.12    \nframe=  100 fps=0.5 q=46.4 size=     512KiB time=00:00:03.26 bitrate=1284.1kbits/s speed=0.0153x elapsed=0:03:33.65    \nframe=  100 fps=0.5 q=46.4 size=     512KiB time=00:00:03.26 bitrate=1284.1kbits/s speed=0.0153x elapsed=0:03:34.18    \nframe=  101 fps=0.5 q=47.1 size=     512KiB time=00:00:03.30 bitrate=1271.1kbits/s speed=0.0154x elapsed=0:03:34.72    \nframe=  101 fps=0.5 q=47.1 size=     512KiB time=00:00:03.30 bitrate=1271.1kbits/s speed=0.0153x elapsed=0:03:35.25    \nframe=  101 fps=0.5 q=47.1 size=     512KiB time=00:00:03.30 bitrate=1271.1kbits/s speed=0.0153x elapsed=0:03:35.78    \nframe=  102 fps=0.5 q=48.6 size=     512KiB time=00:00:03.33 bitrate=1258.4kbits/s speed=0.0154x elapsed=0:03:36.31    \nframe=  102 fps=0.5 q=48.6 size=     512KiB time=00:00:03.33 bitrate=1258.4kbits/s speed=0.0154x elapsed=0:03:36.84    \nframe=  102 fps=0.5 q=48.6 size=     512KiB time=00:00:03.33 bitrate=1258.4kbits/s speed=0.0153x elapsed=0:03:37.41    \nframe=  102 fps=0.5 q=48.6 size=     512KiB time=00:00:03.33 bitrate=1258.4kbits/s speed=0.0153x elapsed=0:03:37.94    \nframe=  103 fps=0.5 q=48.4 size=     512KiB time=00:00:03.36 bitrate=1245.9kbits/s speed=0.0154x elapsed=0:03:38.46    \nframe=  103 fps=0.5 q=48.4 size=     512KiB time=00:00:03.36 bitrate=1245.9kbits/s speed=0.0154x elapsed=0:03:38.98    \nframe=  103 fps=0.5 q=48.4 size=     512KiB time=00:00:03.36 bitrate=1245.9kbits/s speed=0.0153x elapsed=0:03:39.50    \nframe=  104 fps=0.5 q=48.5 size=     512KiB time=00:00:03.40 bitrate=1233.7kbits/s speed=0.0155x elapsed=0:03:40.02    \nframe=  104 fps=0.5 q=48.5 size=     512KiB time=00:00:03.40 bitrate=1233.7kbits/s speed=0.0154x elapsed=0:03:40.54    \nframe=  104 fps=0.5 q=48.5 size=     512KiB time=00:00:03.40 bitrate=1233.7kbits/s speed=0.0154x elapsed=0:03:41.06    \nframe=  105 fps=0.5 q=45.9 size=     512KiB time=00:00:03.43 bitrate=1221.7kbits/s speed=0.0155x elapsed=0:03:41.59    \nframe=  105 fps=0.5 q=45.9 size=     512KiB time=00:00:03.43 bitrate=1221.7kbits/s speed=0.0155x elapsed=0:03:42.12    \nframe=  105 fps=0.5 q=45.9 size=     512KiB time=00:00:03.43 bitrate=1221.7kbits/s speed=0.0154x elapsed=0:03:42.65    \nframe=  105 fps=0.5 q=45.9 size=     512KiB time=00:00:03.43 bitrate=1221.7kbits/s speed=0.0154x elapsed=0:03:43.16    \nframe=  106 fps=0.5 q=47.2 size=     512KiB time=00:00:03.46 bitrate=1210.0kbits/s speed=0.0155x elapsed=0:03:43.67    \nframe=  106 fps=0.5 q=47.2 size=     512KiB time=00:00:03.46 bitrate=1210.0kbits/s speed=0.0155x elapsed=0:03:44.19    \nframe=  107 fps=0.5 q=48.6 size=     512KiB time=00:00:03.50 bitrate=1198.5kbits/s speed=0.0156x elapsed=0:03:44.72    \nframe=  107 fps=0.5 q=48.6 size=     512KiB time=00:00:03.50 bitrate=1198.5kbits/s speed=0.0155x elapsed=0:03:45.26    \nframe=  107 fps=0.5 q=48.6 size=     512KiB time=00:00:03.50 bitrate=1198.5kbits/s speed=0.0155x elapsed=0:03:45.79    \nframe=  108 fps=0.5 q=48.4 size=     512KiB time=00:00:03.53 bitrate=1187.2kbits/s speed=0.0156x elapsed=0:03:46.32    \nframe=  108 fps=0.5 q=48.4 size=     512KiB time=00:00:03.53 bitrate=1187.2kbits/s speed=0.0156x elapsed=0:03:46.87    \nframe=  108 fps=0.5 q=48.4 size=     512KiB time=00:00:03.53 bitrate=1187.2kbits/s speed=0.0155x elapsed=0:03:47.44    \nframe=  108 fps=0.5 q=48.4 size=     512KiB time=00:00:03.53 bitrate=1187.2kbits/s speed=0.0155x elapsed=0:03:48.01    \nframe=  108 fps=0.5 q=48.4 size=     512KiB time=00:00:03.53 bitrate=1187.2kbits/s speed=0.0155x elapsed=0:03:48.57    \nframe=  108 fps=0.5 q=48.4 size=     512KiB time=00:00:03.53 bitrate=1187.2kbits/s speed=0.0154x elapsed=0:03:49.12    \nframe=  108 fps=0.5 q=48.4 size=     512KiB time=00:00:03.53 bitrate=1187.2kbits/s speed=0.0154x elapsed=0:03:49.67    \nframe=  109 fps=0.5 q=48.4 size=     512KiB time=00:00:03.56 bitrate=1176.1kbits/s speed=0.0155x elapsed=0:03:50.22    \nframe=  109 fps=0.5 q=48.4 size=     512KiB time=00:00:03.56 bitrate=1176.1kbits/s speed=0.0155x elapsed=0:03:50.73    \nframe=  109 fps=0.5 q=48.4 size=     512KiB time=00:00:03.56 bitrate=1176.1kbits/s speed=0.0154x elapsed=0:03:51.23    \nframe=  110 fps=0.5 q=46.0 size=     512KiB time=00:00:03.60 bitrate=1165.2kbits/s speed=0.0155x elapsed=0:03:51.79    \nframe=  110 fps=0.5 q=46.0 size=     512KiB time=00:00:03.60 bitrate=1165.2kbits/s speed=0.0155x elapsed=0:03:52.33    \nframe=  110 fps=0.5 q=46.0 size=     512KiB time=00:00:03.60 bitrate=1165.2kbits/s speed=0.0155x elapsed=0:03:52.86    \nframe=  110 fps=0.5 q=46.0 size=     512KiB time=00:00:03.60 bitrate=1165.2kbits/s speed=0.0154x elapsed=0:03:53.46    \nframe=  111 fps=0.5 q=47.2 size=     512KiB time=00:00:03.63 bitrate=1154.5kbits/s speed=0.0155x elapsed=0:03:53.98    \nframe=  112 fps=0.5 q=48.1 size=     512KiB time=00:00:03.66 bitrate=1144.0kbits/s speed=0.0156x elapsed=0:03:54.49    \nframe=  112 fps=0.5 q=48.1 size=     512KiB time=00:00:03.66 bitrate=1144.0kbits/s speed=0.0156x elapsed=0:03:55.02    \nframe=  112 fps=0.5 q=48.1 size=     512KiB time=00:00:03.66 bitrate=1144.0kbits/s speed=0.0156x elapsed=0:03:55.54    \nframe=  113 fps=0.5 q=48.2 size=     512KiB time=00:00:03.70 bitrate=1133.7kbits/s speed=0.0157x elapsed=0:03:56.08    \nframe=  113 fps=0.5 q=48.2 size=     512KiB time=00:00:03.70 bitrate=1133.7kbits/s speed=0.0156x elapsed=0:03:56.62    \nframe=  113 fps=0.5 q=48.2 size=     512KiB time=00:00:03.70 bitrate=1133.7kbits/s speed=0.0156x elapsed=0:03:57.13    \nframe=  114 fps=0.5 q=48.1 size=     512KiB time=00:00:03.73 bitrate=1123.6kbits/s speed=0.0157x elapsed=0:03:57.65    \nframe=  114 fps=0.5 q=48.1 size=     512KiB time=00:00:03.73 bitrate=1123.6kbits/s speed=0.0157x elapsed=0:03:58.19    \nframe=  114 fps=0.5 q=48.1 size=     512KiB time=00:00:03.73 bitrate=1123.6kbits/s speed=0.0156x elapsed=0:03:58.74    \nframe=  115 fps=0.5 q=45.8 size=     512KiB time=00:00:03.76 bitrate=1113.6kbits/s speed=0.0157x elapsed=0:03:59.27    \nframe=  115 fps=0.5 q=45.8 size=     512KiB time=00:00:03.76 bitrate=1113.6kbits/s speed=0.0157x elapsed=0:03:59.82    \nframe=  115 fps=0.5 q=45.8 size=     512KiB time=00:00:03.76 bitrate=1113.6kbits/s speed=0.0157x elapsed=0:04:00.35    \nframe=  115 fps=0.5 q=45.8 size=     512KiB time=00:00:03.76 bitrate=1113.6kbits/s speed=0.0156x elapsed=0:04:00.87    \nframe=  115 fps=0.5 q=45.8 size=     512KiB time=00:00:03.76 bitrate=1113.6kbits/s speed=0.0156x elapsed=0:04:01.38    \nframe=  115 fps=0.5 q=45.8 size=     512KiB time=00:00:03.76 bitrate=1113.6kbits/s speed=0.0156x elapsed=0:04:01.90    \nframe=  116 fps=0.5 q=46.9 size=     512KiB time=00:00:03.80 bitrate=1103.9kbits/s speed=0.0157x elapsed=0:04:02.43    \nframe=  116 fps=0.5 q=46.9 size=     512KiB time=00:00:03.80 bitrate=1103.9kbits/s speed=0.0156x elapsed=0:04:02.96    \nframe=  116 fps=0.5 q=46.9 size=     512KiB time=00:00:03.80 bitrate=1103.9kbits/s speed=0.0156x elapsed=0:04:03.48    \nframe=  117 fps=0.5 q=48.4 size=     512KiB time=00:00:03.83 bitrate=1094.3kbits/s speed=0.0157x elapsed=0:04:04.00    \nframe=  117 fps=0.5 q=48.4 size=     512KiB time=00:00:03.83 bitrate=1094.3kbits/s speed=0.0157x elapsed=0:04:04.54    \nframe=  117 fps=0.5 q=48.4 size=     512KiB time=00:00:03.83 bitrate=1094.3kbits/s speed=0.0156x elapsed=0:04:05.06    \nframe=  117 fps=0.5 q=48.4 size=     512KiB time=00:00:03.83 bitrate=1094.3kbits/s speed=0.0156x elapsed=0:04:05.61    \nframe=  117 fps=0.5 q=48.4 size=     512KiB time=00:00:03.83 bitrate=1094.3kbits/s speed=0.0156x elapsed=0:04:06.12    \nframe=  118 fps=0.5 q=48.5 size=     512KiB time=00:00:03.86 bitrate=1084.8kbits/s speed=0.0157x elapsed=0:04:06.65    \nframe=  118 fps=0.5 q=48.5 size=     512KiB time=00:00:03.86 bitrate=1084.8kbits/s speed=0.0156x elapsed=0:04:07.17    \nframe=  118 fps=0.5 q=48.5 size=     512KiB time=00:00:03.86 bitrate=1084.8kbits/s speed=0.0156x elapsed=0:04:07.68    \nframe=  118 fps=0.5 q=48.5 size=     512KiB time=00:00:03.86 bitrate=1084.8kbits/s speed=0.0156x elapsed=0:04:08.19    \nframe=  118 fps=0.5 q=48.5 size=     512KiB time=00:00:03.86 bitrate=1084.8kbits/s speed=0.0155x elapsed=0:04:08.72    \nframe=  119 fps=0.5 q=48.7 size=     512KiB time=00:00:03.90 bitrate=1075.6kbits/s speed=0.0156x elapsed=0:04:09.24    \nframe=  119 fps=0.5 q=48.7 size=     512KiB time=00:00:03.90 bitrate=1075.6kbits/s speed=0.0156x elapsed=0:04:09.76    \nframe=  119 fps=0.5 q=48.7 size=     512KiB time=00:00:03.90 bitrate=1075.6kbits/s speed=0.0156x elapsed=0:04:10.29    \nframe=  119 fps=0.5 q=48.7 size=     512KiB time=00:00:03.90 bitrate=1075.6kbits/s speed=0.0155x elapsed=0:04:10.81    \nframe=  120 fps=0.5 q=45.7 size=     512KiB time=00:00:03.93 bitrate=1066.4kbits/s speed=0.0156x elapsed=0:04:11.33    \nframe=  120 fps=0.5 q=45.7 size=     512KiB time=00:00:03.93 bitrate=1066.4kbits/s speed=0.0156x elapsed=0:04:11.85    \nframe=  120 fps=0.5 q=45.7 size=     512KiB time=00:00:03.93 bitrate=1066.4kbits/s speed=0.0156x elapsed=0:04:12.37    \nframe=  121 fps=0.5 q=46.9 size=     512KiB time=00:00:03.96 bitrate=1057.5kbits/s speed=0.0157x elapsed=0:04:12.88    \nframe=  121 fps=0.5 q=46.9 size=     512KiB time=00:00:03.96 bitrate=1057.5kbits/s speed=0.0157x elapsed=0:04:13.40    \nframe=  121 fps=0.5 q=46.9 size=     512KiB time=00:00:03.96 bitrate=1057.5kbits/s speed=0.0156x elapsed=0:04:13.93    \nframe=  121 fps=0.5 q=46.9 size=     512KiB time=00:00:03.96 bitrate=1057.5kbits/s speed=0.0156x elapsed=0:04:14.44    \nframe=  121 fps=0.5 q=46.9 size=     512KiB time=00:00:03.96 bitrate=1057.5kbits/s speed=0.0156x elapsed=0:04:14.97    \nframe=  122 fps=0.5 q=48.0 size=     512KiB time=00:00:04.00 bitrate=1048.7kbits/s speed=0.0157x elapsed=0:04:15.49    \nframe=  122 fps=0.5 q=48.0 size=     512KiB time=00:00:04.00 bitrate=1048.7kbits/s speed=0.0156x elapsed=0:04:16.02    \nframe=  122 fps=0.5 q=48.0 size=     512KiB time=00:00:04.00 bitrate=1048.7kbits/s speed=0.0156x elapsed=0:04:16.54    \nframe=  123 fps=0.5 q=48.2 size=     512KiB time=00:00:04.03 bitrate=1040.0kbits/s speed=0.0157x elapsed=0:04:17.07    \nframe=  123 fps=0.5 q=48.2 size=     512KiB time=00:00:04.03 bitrate=1040.0kbits/s speed=0.0157x elapsed=0:04:17.59    \nframe=  123 fps=0.5 q=48.2 size=     512KiB time=00:00:04.03 bitrate=1040.0kbits/s speed=0.0156x elapsed=0:04:18.12    \nframe=  123 fps=0.5 q=48.2 size=     512KiB time=00:00:04.03 bitrate=1040.0kbits/s speed=0.0156x elapsed=0:04:18.65    \nframe=  123 fps=0.5 q=48.2 size=     512KiB time=00:00:04.03 bitrate=1040.0kbits/s speed=0.0156x elapsed=0:04:19.19    \nframe=  123 fps=0.5 q=48.2 size=     512KiB time=00:00:04.03 bitrate=1040.0kbits/s speed=0.0155x elapsed=0:04:19.71    \nframe=  124 fps=0.5 q=45.9 size=     512KiB time=00:00:04.06 bitrate=1031.5kbits/s speed=0.0156x elapsed=0:04:20.24    \nframe=  124 fps=0.5 q=45.9 size=     512KiB time=00:00:04.06 bitrate=1031.5kbits/s speed=0.0156x elapsed=0:04:20.79    \nframe=  124 fps=0.5 q=45.9 size=     512KiB time=00:00:04.06 bitrate=1031.5kbits/s speed=0.0156x elapsed=0:04:21.32    \nframe=  125 fps=0.5 q=46.6 size=     512KiB time=00:00:04.10 bitrate=1023.1kbits/s speed=0.0157x elapsed=0:04:21.84    \nframe=  126 fps=0.5 q=48.1 size=     512KiB time=00:00:04.13 bitrate=1014.8kbits/s speed=0.0158x elapsed=0:04:22.37    \nframe=  126 fps=0.5 q=48.1 size=     512KiB time=00:00:04.13 bitrate=1014.8kbits/s speed=0.0157x elapsed=0:04:22.92    \nframe=  126 fps=0.5 q=48.1 size=     512KiB time=00:00:04.13 bitrate=1014.8kbits/s speed=0.0157x elapsed=0:04:23.50    \nframe=  126 fps=0.5 q=48.1 size=     512KiB time=00:00:04.13 bitrate=1014.8kbits/s speed=0.0157x elapsed=0:04:24.04    \nframe=  126 fps=0.5 q=48.1 size=     512KiB time=00:00:04.13 bitrate=1014.8kbits/s speed=0.0156x elapsed=0:04:24.55    \nframe=  126 fps=0.5 q=48.1 size=     512KiB time=00:00:04.13 bitrate=1014.8kbits/s speed=0.0156x elapsed=0:04:25.07    \nframe=  126 fps=0.5 q=48.1 size=     512KiB time=00:00:04.13 bitrate=1014.8kbits/s speed=0.0156x elapsed=0:04:25.59    \nframe=  127 fps=0.5 q=48.3 size=     512KiB time=00:00:04.16 bitrate=1006.7kbits/s speed=0.0157x elapsed=0:04:26.10    \nframe=  127 fps=0.5 q=48.3 size=     512KiB time=00:00:04.16 bitrate=1006.7kbits/s speed=0.0156x elapsed=0:04:26.63    \nframe=  127 fps=0.5 q=48.3 size=     512KiB time=00:00:04.16 bitrate=1006.7kbits/s speed=0.0156x elapsed=0:04:27.16    \nframe=  128 fps=0.5 q=45.7 size=     512KiB time=00:00:04.20 bitrate= 998.7kbits/s speed=0.0157x elapsed=0:04:27.71    \nframe=  128 fps=0.5 q=45.7 size=     512KiB time=00:00:04.20 bitrate= 998.7kbits/s speed=0.0157x elapsed=0:04:28.23    \nframe=  129 fps=0.5 q=46.5 size=     512KiB time=00:00:04.23 bitrate= 990.9kbits/s speed=0.0158x elapsed=0:04:28.75    \nframe=  129 fps=0.5 q=46.5 size=     512KiB time=00:00:04.23 bitrate= 990.9kbits/s speed=0.0157x elapsed=0:04:29.31    \nframe=  129 fps=0.5 q=46.5 size=     512KiB time=00:00:04.23 bitrate= 990.9kbits/s speed=0.0157x elapsed=0:04:29.84    \nframe=  130 fps=0.5 q=48.1 size=     768KiB time=00:00:04.26 bitrate=1474.6kbits/s speed=0.0158x elapsed=0:04:30.35    \nframe=  131 fps=0.5 q=47.8 size=     768KiB time=00:00:04.30 bitrate=1463.2kbits/s speed=0.0159x elapsed=0:04:30.88    \nframe=  131 fps=0.5 q=47.8 size=     768KiB time=00:00:04.30 bitrate=1463.2kbits/s speed=0.0158x elapsed=0:04:31.46    \nframe=  131 fps=0.5 q=47.8 size=     768KiB time=00:00:04.30 bitrate=1463.2kbits/s speed=0.0158x elapsed=0:04:32.02    \nframe=  131 fps=0.5 q=47.8 size=     768KiB time=00:00:04.30 bitrate=1463.2kbits/s speed=0.0158x elapsed=0:04:32.58    \nframe=  131 fps=0.5 q=47.8 size=     768KiB time=00:00:04.30 bitrate=1463.2kbits/s speed=0.0157x elapsed=0:04:33.13    \nframe=  131 fps=0.5 q=47.8 size=     768KiB time=00:00:04.30 bitrate=1463.2kbits/s speed=0.0157x elapsed=0:04:33.66    \nframe=  131 fps=0.5 q=47.8 size=     768KiB time=00:00:04.30 bitrate=1463.2kbits/s speed=0.0157x elapsed=0:04:34.21    \nframe=  131 fps=0.5 q=47.8 size=     768KiB time=00:00:04.30 bitrate=1463.2kbits/s speed=0.0156x elapsed=0:04:34.76    \nframe=  131 fps=0.5 q=47.8 size=     768KiB time=00:00:04.30 bitrate=1463.2kbits/s speed=0.0156x elapsed=0:04:35.37    \nframe=  131 fps=0.5 q=47.8 size=     768KiB time=00:00:04.30 bitrate=1463.2kbits/s speed=0.0156x elapsed=0:04:35.93    \nframe=  131 fps=0.5 q=47.8 size=     768KiB time=00:00:04.30 bitrate=1463.2kbits/s speed=0.0155x elapsed=0:04:36.59    \nframe=  131 fps=0.5 q=47.8 size=     768KiB time=00:00:04.30 bitrate=1463.2kbits/s speed=0.0155x elapsed=0:04:37.14    \nframe=  131 fps=0.5 q=47.8 size=     768KiB time=00:00:04.30 bitrate=1463.2kbits/s speed=0.0155x elapsed=0:04:37.75    \nframe=  131 fps=0.5 q=47.8 size=     768KiB time=00:00:04.30 bitrate=1463.2kbits/s speed=0.0154x elapsed=0:04:38.34    \nframe=  131 fps=0.5 q=47.8 size=     768KiB time=00:00:04.30 bitrate=1463.2kbits/s speed=0.0154x elapsed=0:04:38.92    \nframe=  131 fps=0.5 q=47.8 size=     768KiB time=00:00:04.30 bitrate=1463.2kbits/s speed=0.0154x elapsed=0:04:39.46    \nframe=  131 fps=0.5 q=47.8 size=     768KiB time=00:00:04.30 bitrate=1463.2kbits/s speed=0.0154x elapsed=0:04:40.01    \nframe=  131 fps=0.5 q=47.8 size=     768KiB time=00:00:04.30 bitrate=1463.2kbits/s speed=0.0153x elapsed=0:04:40.54    \nframe=  131 fps=0.5 q=47.8 size=     768KiB time=00:00:04.30 bitrate=1463.2kbits/s speed=0.0153x elapsed=0:04:41.10    \nframe=  132 fps=0.5 q=48.0 size=     768KiB time=00:00:04.33 bitrate=1452.0kbits/s speed=0.0154x elapsed=0:04:41.68    \nframe=  133 fps=0.5 q=45.5 size=     768KiB time=00:00:04.36 bitrate=1440.9kbits/s speed=0.0155x elapsed=0:04:42.27    \nframe=  133 fps=0.5 q=45.5 size=     768KiB time=00:00:04.36 bitrate=1440.9kbits/s speed=0.0154x elapsed=0:04:42.80    \nframe=  133 fps=0.5 q=45.5 size=     768KiB time=00:00:04.36 bitrate=1440.9kbits/s speed=0.0154x elapsed=0:04:43.36    \nframe=  133 fps=0.5 q=45.5 size=     768KiB time=00:00:04.36 bitrate=1440.9kbits/s speed=0.0154x elapsed=0:04:43.90    \nframe=  134 fps=0.5 q=46.6 size=     768KiB time=00:00:04.40 bitrate=1430.0kbits/s speed=0.0155x elapsed=0:04:44.42    \nframe=  134 fps=0.5 q=46.6 size=     768KiB time=00:00:04.40 bitrate=1430.0kbits/s speed=0.0154x elapsed=0:04:44.93    \nframe=  134 fps=0.5 q=46.6 size=     768KiB time=00:00:04.40 bitrate=1430.0kbits/s speed=0.0154x elapsed=0:04:45.45    \nframe=  135 fps=0.5 q=48.1 size=     768KiB time=00:00:04.43 bitrate=1419.2kbits/s speed=0.0155x elapsed=0:04:45.97    \nframe=  135 fps=0.5 q=48.1 size=     768KiB time=00:00:04.43 bitrate=1419.2kbits/s speed=0.0155x elapsed=0:04:46.50    \nframe=  136 fps=0.5 q=48.3 size=     768KiB time=00:00:04.46 bitrate=1408.6kbits/s speed=0.0156x elapsed=0:04:47.03    \nframe=  136 fps=0.5 q=48.3 size=     768KiB time=00:00:04.46 bitrate=1408.6kbits/s speed=0.0155x elapsed=0:04:47.54    \nframe=  136 fps=0.5 q=48.3 size=     768KiB time=00:00:04.46 bitrate=1408.6kbits/s speed=0.0155x elapsed=0:04:48.07    \nframe=  136 fps=0.5 q=48.3 size=     768KiB time=00:00:04.46 bitrate=1408.6kbits/s speed=0.0155x elapsed=0:04:48.61    \nframe=  137 fps=0.5 q=45.7 size=     768KiB time=00:00:04.50 bitrate=1398.2kbits/s speed=0.0156x elapsed=0:04:49.13    \nframe=  137 fps=0.5 q=45.7 size=     768KiB time=00:00:04.50 bitrate=1398.2kbits/s speed=0.0155x elapsed=0:04:49.65    \nframe=  137 fps=0.5 q=45.7 size=     768KiB time=00:00:04.50 bitrate=1398.2kbits/s speed=0.0155x elapsed=0:04:50.17    \nframe=  137 fps=0.5 q=45.7 size=     768KiB time=00:00:04.50 bitrate=1398.2kbits/s speed=0.0155x elapsed=0:04:50.72    \nframe=  137 fps=0.5 q=45.7 size=     768KiB time=00:00:04.50 bitrate=1398.2kbits/s speed=0.0155x elapsed=0:04:51.25    \nframe=  138 fps=0.5 q=46.0 size=     768KiB time=00:00:04.53 bitrate=1387.9kbits/s speed=0.0155x elapsed=0:04:51.77    \nframe=  138 fps=0.5 q=46.0 size=     768KiB time=00:00:04.53 bitrate=1387.9kbits/s speed=0.0155x elapsed=0:04:52.29    \nframe=  138 fps=0.5 q=46.0 size=     768KiB time=00:00:04.53 bitrate=1387.9kbits/s speed=0.0155x elapsed=0:04:52.84    \nframe=  139 fps=0.5 q=47.8 size=     768KiB time=00:00:04.56 bitrate=1377.8kbits/s speed=0.0156x elapsed=0:04:53.36    \nframe=  139 fps=0.5 q=47.8 size=     768KiB time=00:00:04.56 bitrate=1377.8kbits/s speed=0.0155x elapsed=0:04:53.89    \nframe=  139 fps=0.5 q=47.8 size=     768KiB time=00:00:04.56 bitrate=1377.8kbits/s speed=0.0155x elapsed=0:04:54.43    \nframe=  139 fps=0.5 q=47.8 size=     768KiB time=00:00:04.56 bitrate=1377.8kbits/s speed=0.0155x elapsed=0:04:54.95    \nframe=  139 fps=0.5 q=47.8 size=     768KiB time=00:00:04.56 bitrate=1377.8kbits/s speed=0.0155x elapsed=0:04:55.47    \nframe=  140 fps=0.5 q=47.7 size=     768KiB time=00:00:04.60 bitrate=1367.8kbits/s speed=0.0155x elapsed=0:04:55.99    \nframe=  140 fps=0.5 q=47.7 size=     768KiB time=00:00:04.60 bitrate=1367.8kbits/s speed=0.0155x elapsed=0:04:56.51    \nframe=  140 fps=0.5 q=47.7 size=     768KiB time=00:00:04.60 bitrate=1367.8kbits/s speed=0.0155x elapsed=0:04:57.02    \nframe=  140 fps=0.5 q=47.7 size=     768KiB time=00:00:04.60 bitrate=1367.8kbits/s speed=0.0155x elapsed=0:04:57.55    \nframe=  140 fps=0.5 q=47.7 size=     768KiB time=00:00:04.60 bitrate=1367.8kbits/s speed=0.0154x elapsed=0:04:58.08    \nframe=  141 fps=0.5 q=47.9 size=     768KiB time=00:00:04.63 bitrate=1357.9kbits/s speed=0.0155x elapsed=0:04:58.61    \nframe=  141 fps=0.5 q=47.9 size=     768KiB time=00:00:04.63 bitrate=1357.9kbits/s speed=0.0155x elapsed=0:04:59.23    \nframe=  141 fps=0.5 q=47.9 size=     768KiB time=00:00:04.63 bitrate=1357.9kbits/s speed=0.0154x elapsed=0:04:59.90    \nframe=  141 fps=0.5 q=47.9 size=     768KiB time=00:00:04.63 bitrate=1357.9kbits/s speed=0.0154x elapsed=0:05:00.63    \nframe=  141 fps=0.5 q=47.9 size=     768KiB time=00:00:04.63 bitrate=1357.9kbits/s speed=0.0154x elapsed=0:05:01.18    \nframe=  141 fps=0.5 q=47.9 size=     768KiB time=00:00:04.63 bitrate=1357.9kbits/s speed=0.0154x elapsed=0:05:01.74    \nframe=  141 fps=0.5 q=47.9 size=     768KiB time=00:00:04.63 bitrate=1357.9kbits/s speed=0.0153x elapsed=0:05:02.26    \nframe=  141 fps=0.5 q=47.9 size=     768KiB time=00:00:04.63 bitrate=1357.9kbits/s speed=0.0153x elapsed=0:05:02.78    \nframe=  141 fps=0.5 q=47.9 size=     768KiB time=00:00:04.63 bitrate=1357.9kbits/s speed=0.0153x elapsed=0:05:03.33    \nframe=  141 fps=0.5 q=47.9 size=     768KiB time=00:00:04.63 bitrate=1357.9kbits/s speed=0.0152x elapsed=0:05:03.84    \nframe=  141 fps=0.5 q=47.9 size=     768KiB time=00:00:04.63 bitrate=1357.9kbits/s speed=0.0152x elapsed=0:05:04.39    \nframe=  141 fps=0.5 q=47.9 size=     768KiB time=00:00:04.63 bitrate=1357.9kbits/s speed=0.0152x elapsed=0:05:04.94    \nframe=  142 fps=0.5 q=45.6 size=     768KiB time=00:00:04.66 bitrate=1348.2kbits/s speed=0.0153x elapsed=0:05:05.49    \nframe=  142 fps=0.5 q=45.6 size=     768KiB time=00:00:04.66 bitrate=1348.2kbits/s speed=0.0152x elapsed=0:05:06.01    \nframe=  142 fps=0.5 q=45.6 size=     768KiB time=00:00:04.66 bitrate=1348.2kbits/s speed=0.0152x elapsed=0:05:06.53    \nframe=  142 fps=0.5 q=45.6 size=     768KiB time=00:00:04.66 bitrate=1348.2kbits/s speed=0.0152x elapsed=0:05:07.09    \nframe=  142 fps=0.5 q=45.6 size=     768KiB time=00:00:04.66 bitrate=1348.2kbits/s speed=0.0152x elapsed=0:05:07.64    \nframe=  143 fps=0.5 q=46.8 size=     768KiB time=00:00:04.70 bitrate=1338.7kbits/s speed=0.0152x elapsed=0:05:08.19    \nframe=  143 fps=0.5 q=46.8 size=     768KiB time=00:00:04.70 bitrate=1338.7kbits/s speed=0.0152x elapsed=0:05:08.73    \nframe=  143 fps=0.5 q=46.8 size=     768KiB time=00:00:04.70 bitrate=1338.7kbits/s speed=0.0152x elapsed=0:05:09.27    \nframe=  143 fps=0.5 q=46.8 size=     768KiB time=00:00:04.70 bitrate=1338.7kbits/s speed=0.0152x elapsed=0:05:09.80    \nframe=  143 fps=0.5 q=46.8 size=     768KiB time=00:00:04.70 bitrate=1338.7kbits/s speed=0.0151x elapsed=0:05:10.32    \nframe=  143 fps=0.5 q=46.8 size=     768KiB time=00:00:04.70 bitrate=1338.7kbits/s speed=0.0151x elapsed=0:05:10.86    \nframe=  143 fps=0.5 q=46.8 size=     768KiB time=00:00:04.70 bitrate=1338.7kbits/s speed=0.0151x elapsed=0:05:11.39    \nframe=  144 fps=0.5 q=48.5 size=     768KiB time=00:00:04.73 bitrate=1329.3kbits/s speed=0.0152x elapsed=0:05:11.92    \nframe=  144 fps=0.5 q=48.5 size=     768KiB time=00:00:04.73 bitrate=1329.3kbits/s speed=0.0151x elapsed=0:05:12.46    \nframe=  145 fps=0.5 q=47.9 size=     768KiB time=00:00:04.76 bitrate=1320.0kbits/s speed=0.0152x elapsed=0:05:13.00    \nframe=  145 fps=0.5 q=47.9 size=     768KiB time=00:00:04.76 bitrate=1320.0kbits/s speed=0.0152x elapsed=0:05:13.52    \nframe=  145 fps=0.5 q=47.9 size=     768KiB time=00:00:04.76 bitrate=1320.0kbits/s speed=0.0152x elapsed=0:05:14.05    \nframe=  145 fps=0.5 q=47.9 size=     768KiB time=00:00:04.76 bitrate=1320.0kbits/s speed=0.0152x elapsed=0:05:14.59    \nframe=  145 fps=0.5 q=47.9 size=     768KiB time=00:00:04.76 bitrate=1320.0kbits/s speed=0.0151x elapsed=0:05:15.12    \nframe=  146 fps=0.5 q=46.0 size=     768KiB time=00:00:04.80 bitrate=1310.8kbits/s speed=0.0152x elapsed=0:05:15.69    \nframe=  146 fps=0.5 q=46.0 size=     768KiB time=00:00:04.80 bitrate=1310.8kbits/s speed=0.0152x elapsed=0:05:16.24    \nframe=  147 fps=0.5 q=46.5 size=     768KiB time=00:00:04.83 bitrate=1301.8kbits/s speed=0.0153x elapsed=0:05:16.79    \nframe=  147 fps=0.5 q=46.5 size=     768KiB time=00:00:04.83 bitrate=1301.8kbits/s speed=0.0152x elapsed=0:05:17.34    \nframe=  147 fps=0.5 q=46.5 size=     768KiB time=00:00:04.83 bitrate=1301.8kbits/s speed=0.0152x elapsed=0:05:17.87    \nframe=  147 fps=0.5 q=46.5 size=     768KiB time=00:00:04.83 bitrate=1301.8kbits/s speed=0.0152x elapsed=0:05:18.43    \nframe=  147 fps=0.5 q=46.5 size=     768KiB time=00:00:04.83 bitrate=1301.8kbits/s speed=0.0152x elapsed=0:05:18.93    \nframe=  148 fps=0.5 q=48.3 size=     768KiB time=00:00:04.86 bitrate=1292.8kbits/s speed=0.0152x elapsed=0:05:19.46    \n[mp4 @ 000002127c8d9740] Starting second pass: moving the moov atom to the beginning of the file\n[out#0/mp4 @ 000002127c8cab00] video:897KiB audio:0KiB subtitle:0KiB other streams:0KiB global headers:2KiB muxing overhead: 0.560878%\nframe=  150 fps=0.5 q=48.5 Lsize=     902KiB time=00:00:04.93 bitrate=1497.9kbits/s speed=0.0154x elapsed=0:05:19.72    \nx265 [info]: frame I:      2, Avg QP:44.15  kb/s: 2622.96 \nx265 [info]: frame P:     32, Avg QP:46.57  kb/s: 2054.68 \nx265 [info]: frame B:    116, Avg QP:48.66  kb/s: 1287.20 \nx265 [info]: Weighted P-Frames: Y:0.0% UV:0.0%\n\nencoded 150 frames in 319.34s (0.47 fps), 1468.74 kb/s, Avg QP:48.16\n",
  "seconds": 320.2500832080841,
  "probe_out": {}
}